<svg width="14" height="16" viewBox="0 0 14 16" fill="none" xmlns="http://www.w3.org/2000/svg">
<g id="Group 1000003536">
<path id="Vector" d="M5.87437 12.8818C6.11101 13.252 6.34531 13.6269 6.58898 13.9924C6.80688 14.3204 7.18411 14.3181 7.40904 13.9948C7.43012 13.9643 7.44887 13.9339 7.46761 13.9034C8.76564 11.8814 10.073 9.86405 11.3593 7.83267C12.1021 6.65648 12.2965 5.36783 12.006 4.01123C11.8397 3.23335 11.4952 2.53513 10.9938 1.91892C10.319 1.08715 9.46854 0.506089 8.43527 0.215557C8.06976 0.112464 7.68551 0.0702902 7.31063 0H6.68739C6.44606 0.0351451 6.20473 0.0538891 5.96809 0.105435C3.86172 0.557635 2.30597 2.16728 1.9428 4.28067C1.72256 5.56464 1.96623 6.7666 2.66445 7.86781C3.72817 9.54306 4.80361 11.2089 5.87437 12.8795V12.8818ZM7.0037 2.80223C8.28766 2.80458 9.33733 3.86127 9.33264 5.1429C9.32796 6.42686 8.27126 7.47419 6.98729 7.46716C5.70801 7.46013 4.66538 6.41046 4.66538 5.13353C4.66538 3.84956 5.71973 2.79755 7.0037 2.79989V2.80223Z" fill="#FFD700"/>
<path id="Vector_2" d="M12.9246 11.6016C12.2451 11.1728 11.4883 10.9432 10.7174 10.7511C10.68 10.7417 10.6097 10.7956 10.5816 10.8378C10.2863 11.29 9.99815 11.7445 9.70761 12.1991C9.22027 12.9582 8.74464 13.7243 8.24089 14.4718C7.88007 15.0083 7.22871 15.2262 6.60782 15.0645C6.19076 14.9568 5.88617 14.7014 5.65421 14.3406C4.91382 13.1784 4.1664 12.0186 3.42601 10.8565C3.36744 10.7651 3.32058 10.7276 3.20577 10.7651C2.80746 10.8963 2.39978 10.9994 2.0085 11.1447C1.40166 11.3696 0.83465 11.6719 0.396508 12.1662C-0.14707 12.7778 -0.128326 13.5627 0.431653 14.1555C0.825278 14.5725 1.31028 14.8443 1.83043 15.0622C2.88712 15.505 4.00005 15.7182 5.13172 15.8377C6.67108 16.0017 8.20575 15.9689 9.73573 15.7182C10.7315 15.5566 11.7062 15.3223 12.6083 14.8513C13.2549 14.5139 13.8266 14.0945 14 13.3214V12.9488C13.8547 12.3303 13.44 11.9273 12.9246 11.6039V11.6016Z" fill="#FFD700"/>
</g>
</svg>
