<svg width="29" height="41" viewBox="0 0 29 41" fill="none" xmlns="http://www.w3.org/2000/svg">
<g id="Group">
<path id="Vector" d="M2.42897 0L2.24109 0.281814L2.14715 0.577048L2.05322 0.778343L1.93244 0.9528L1.98612 1.07358L2.02638 1.23461L2.14715 1.04674L2.29477 1.07358L2.41555 0.979639L2.52291 1.16752L2.75104 1.11384L2.91208 1.26145V1.42249L3.00602 1.57011L3.09995 1.69088L3.00602 1.85192L2.88524 1.91902L2.76446 1.73114L2.7242 1.89218L2.50949 1.9727L2.41555 2.10689L2.30819 2.20083L2.05322 2.22767V2.56317L2.12031 2.71078L2.02638 2.81814L1.87876 2.91208H1.86534L1.62379 2.9926L1.26145 2.93892V3.18047L0.993059 3.27441L0.9528 3.48913L0.832022 3.70384L1.04674 3.82462L0.9528 4.07959L0.657566 4.26747L0.563628 4.45534L0.590467 4.60296L0.429431 4.72374L0.348913 5.09949L0.590467 5.13975L0.496529 5.35447L0.644146 5.54234L0.764924 5.75706L1.04674 5.52892L1.16752 5.66312L1.31513 5.54234L1.52985 5.47524L1.54327 5.54234L1.52985 5.66312L1.78482 5.81074L1.8385 5.97177H1.98612L2.14715 6.14623V6.24017L2.26793 6.30727L2.41555 6.45488C2.75884 6.49015 2.61779 6.41134 2.69736 6.49514L2.67052 6.70986L2.57658 6.76354V6.95141L2.7242 7.04535H2.93892V7.23323L3.09995 7.354L3.18047 7.51504L3.46229 7.54188L3.62332 7.4882L3.677 7.60898L3.89172 7.63582V7.72975L4.22721 7.77001L4.32115 7.67608L4.44193 7.60898C4.44193 7.60898 4.72839 7.73068 4.65664 7.63582C4.58489 7.54104 4.58954 7.36742 4.58954 7.36742L4.72374 7.51504L4.87136 7.36742V7.60898L4.99213 7.66266L5.08607 7.87737L4.99213 8.10551L4.87136 8.18602L5.01897 8.25312L5.04581 8.441L5.35447 8.74965L5.42156 8.62888L5.48866 8.72281V8.81675L6.09255 8.87043L6.15965 8.96437L6.14623 9.1254L6.06571 9.09857L5.7839 9.1925L5.73022 9.528L5.75706 9.68903L5.63628 9.80981C5.70719 9.97667 5.59029 9.8282 5.56918 9.83665L5.66312 9.71587L5.47524 9.70245H5.3813L5.05923 9.50116L4.99213 9.67561L4.8311 9.79639H4.77742L4.65664 9.64877L4.53586 9.71587L4.25405 9.55484L4.07959 9.50116L4.03933 9.59509L3.58306 9.58167L3.46229 9.80981H3.34151V9.67561L3.27441 9.59509L3.19389 9.70245L3.09995 9.58167H2.96576L2.84498 9.48774L2.7913 9.58167L2.63026 9.64877L2.60342 9.83665L2.7913 9.93059V9.99769L2.63026 10.0782V10.4137L2.67052 10.4808L2.54975 10.454L2.52291 10.6687L2.64368 10.7626L2.54975 10.8834L2.42897 10.9505V11.0981L2.30819 11.1249V11.2189H2.33503L2.26793 11.3799L1.98612 11.3531L1.93244 11.541H1.86534L1.8385 11.6349H1.99954V11.7557L1.9056 11.9033L1.86534 11.7557L1.74456 11.8764L1.69088 11.7557L1.54327 11.6617L1.47617 11.8093L1.54327 11.5678L1.31513 11.4068L1.32855 11.2591L1.16752 11.2323L1.14068 11.3128H0.9528L0.764924 11.4202L0.738084 11.541L0.858862 11.6617L0.899121 11.9972L0.46969 12.279L0.523369 12.4669L0.375752 12.4401L0.308653 12.5206L0.281814 12.7085L0.254975 12.8695L0.228135 12.9903L0.107358 12.9634L0 13.0305L0.0670986 13.1111L0.187876 13.205L0.161037 13.2989L0.429431 13.46L0.402591 13.6076L0.550208 13.7418L0.46969 13.9565L0.563628 14.1444L0.684405 14.292H0.858862L0.993059 14.4396L1.10042 14.547L1.26145 14.5335L1.86534 14.7214C2.0054 14.7719 2.13249 14.9187 2.24109 15.0569L2.48265 15.1643L2.69736 15.218L2.7242 15.3387L2.81814 15.3119L3.03286 15.5266L3.24757 15.6474L3.40861 15.4998L3.62332 15.6205L3.98565 15.6474L4.07959 15.4998L4.28089 15.5266L4.44193 15.8755L4.41509 16.3855L4.22721 16.4257V16.5197L4.30773 16.5465H4.16011L4.22721 17.1101L4.50902 17.3249L4.37483 17.3919L4.58954 17.5127L4.41509 17.5664L4.44193 17.7006L4.50902 17.6603L4.6298 17.6335L4.77742 17.7811L4.68348 17.8214H4.53586C4.53586 17.8214 4.64837 17.9089 4.50902 17.8482L4.4956 17.969L4.53586 18.1569L4.48218 18.3045L4.32115 18.3179L4.06617 18.5863L3.93198 18.5997L3.85146 18.7071V18.5595L3.73068 18.5058L3.58306 18.5863L3.62332 18.6266L3.6099 18.895L3.677 18.9621V19.0157L3.52938 19.1499L3.40861 19.1097L3.58306 19.3378L3.46229 19.4586L3.43545 19.727L3.55622 19.7672L3.51596 19.9283L3.39519 20.0088L3.43545 20.1027L3.6099 20.143L3.56964 20.398L3.86488 20.3845L4.03933 20.5456L3.95882 20.72L4.28089 20.9482L4.45534 21.0421L4.53586 21.1226L4.50902 21.2166L4.61638 21.3105L4.79084 21.1763L4.68348 21.0689L4.80426 21.0958L4.85794 21.1495L4.80426 21.2971L4.8311 21.4447L4.68348 21.4044L4.61638 21.6192V21.901L4.6298 21.9278L4.46876 22.0888L4.4956 22.2096L4.29431 22.2633L4.25405 22.3572V22.4646L4.40167 22.572V22.6793L4.50902 22.7598L4.71032 22.7733L4.75058 22.894L4.99213 22.9209V22.7598L5.23369 22.8672H5.62286L5.66312 23.0148L5.7839 23.0819L5.99861 22.9209L6.02545 23.0416L6.11939 23.0819L6.03887 23.2295L5.94493 23.1624L5.7168 23.3235L5.73022 23.5113L5.48866 23.6053L5.30079 23.9139L5.39472 23.9944V24.1018L5.47524 24.2226L5.32763 24.2763L5.27395 24.6923L5.56918 24.813L5.48866 24.9607H5.59602L5.5155 25.0009L5.56918 25.2022L5.7168 25.3633L5.7839 25.2425L5.87783 25.2962L5.85099 25.4035L5.94493 25.4572L5.93151 25.6048L5.7839 25.739L5.87783 25.8329L5.7839 25.8598L5.75706 26.0745L5.60944 26.0074L5.66312 26.2087L5.85099 26.4771L5.63628 26.8797L5.87783 27.0407L5.82416 27.1883L5.7839 27.3762L5.99861 27.5373L5.94493 27.752L6.09255 27.9935L6.11939 28.2485L6.21333 28.329L5.99861 28.3961L6.02545 28.5437L6.11939 28.6108L6.02545 29.0134L6.26701 29.0403L6.30727 29.2281L6.11939 29.1745V29.2952L6.26701 29.4563L6.4012 29.4831V29.6978L6.57566 29.8454L6.58908 30.1541L6.81721 30.1004L6.64276 30.342H6.42804L6.4012 30.5298L6.48172 30.7714L6.69644 31.1472L6.61592 31.1874L6.58908 31.7645L6.76354 31.9792L6.79037 32.2878L6.81721 32.4489L7.09903 32.5965L7.31374 32.5025L7.46136 32.7844L7.40768 32.9051L7.5553 33.0393L7.46136 33.254L7.24664 33.4956L7.52846 33.6164L7.81027 33.5359L7.77001 33.4151H7.93105L7.95789 33.2809L7.83711 33.2138L7.93105 33.0662V32.5965L7.83711 32.5428L8.03841 32.3818L8.19944 31.9255L8.34706 31.7913V31.7779L8.49468 31.8316L8.5081 31.9792L8.25312 32.0329L8.06525 32.3549L8.17261 32.4489L8.2397 32.6636H8.34706L8.38732 32.8515L8.45442 33.093L8.76307 33.1064L8.93753 32.838L9.03147 32.7844L9.1254 32.5965L9.08515 32.4891L9.01805 32.3549L8.78991 32.2073L8.97779 32.1134L9.29986 31.7779L9.3267 31.5229L9.34012 31.2277H9.40722L9.3938 31.1874C9.59501 30.65 9.57391 30.7102 9.43406 31.2277H9.40722L9.4609 31.4961L9.3938 32.0329L9.43406 32.3013V32.5696L9.63535 32.8649L9.528 33.1064L9.80981 33.2004L10.0379 33.1333L9.87691 32.7978L10.1453 32.8649H10.5211L10.615 32.6636L10.1721 32.3281L10.4137 32.261L10.8163 32.3013L10.9907 32.4354L11.4604 32.1268V31.9255H11.5946V31.7242L11.4604 31.3619L11.5007 30.919L11.3933 30.6909L11.6617 30.3151L11.5946 29.9528L11.3933 29.6441L11.4336 29.2416L11.5007 29.0403L11.702 28.7048V28.2753C11.9662 27.9713 12.01 28.0765 11.7154 28.3022V28.6377L11.7557 28.8524L11.5678 29.1745L11.541 29.5368L11.6886 29.7247L11.7422 30.0736H11.8496L11.7691 30.1138V30.5835L11.8362 30.919L12.1046 31.3619L12.279 31.1606L12.1717 31.0532L12.2119 30.8251L12.373 30.7848L12.4803 30.5567L12.5743 30.7177L12.4132 30.919L12.373 31.2545L12.6145 31.2948L12.8427 31.3887C12.8427 31.3887 12.6092 31.5229 12.4401 31.5229C12.271 31.5229 12.4132 31.8987 12.4132 31.8987L12.5474 32.0597L12.4401 32.2341L12.8829 32.3281L13.1245 32.5294L13.4197 32.5965L13.7015 32.4354L13.9968 32.3281L13.9699 31.9658L14.3054 31.5632V31.0532L14.5067 30.8251L14.6677 30.5567L15.218 30.7177L15.8218 30.5164L15.7547 30.0467L15.8218 29.8454L15.956 29.4831L16.1573 29.0805V28.7853L16.3989 28.6511L16.2379 28.1143L15.956 28.0069L15.9963 27.6714L15.795 27.4031L15.5534 27.1749L15.54 27.2957L15.4863 27.2286L15.4729 27.0273L15.54 26.826L15.379 26.571L15.6608 26.5174L15.6876 26.3563L15.9024 26.1416L16.305 25.8598L16.5465 25.739L16.6941 25.578L16.5465 25.2425L16.3318 25.0546L16.0366 24.9338L15.7547 24.813L15.5132 24.5983L15.1777 24.4105L14.8422 24.3434C14.8228 24.3553 14.7975 24.3523 14.7751 24.3568L14.8422 24.3434L15.1106 24.2494L15.2448 23.8871L15.3253 23.8737L15.6876 23.7663L15.5534 23.565L15.7547 23.4174L15.8889 23.1087L15.795 22.7464L15.7547 22.5049L15.6608 22.2767H15.4193H15.1509L15.0167 22.0352L14.708 21.807L14.3725 21.7668L14.3457 21.807L13.8894 21.6594L13.6747 21.5655L13.4868 21.4044L13.3124 21.391L13.2855 21.0824L13.1379 20.814L12.8292 20.5993L12.3059 20.5187L12.2254 20.3174H12.0912L11.9167 20.1161L11.4336 20.0088L11.3799 19.8746L11.2457 19.8478H11.192L11.1786 19.9685C11.1725 19.97 11.1697 19.9596 11.1652 19.9551L11.192 19.8478V19.8343L11.3128 19.7941L11.2055 19.7404L11.0981 19.6465L10.776 19.4183L10.5479 19.2439H10.0648V19.217L9.94401 19.0828L9.97085 18.9621L9.85007 18.895L9.51458 19.1097L9.3938 19.0292L9.34012 18.9084L9.15224 18.9352L9.24618 19.2036L8.89727 18.9889L8.84359 18.8144V18.6534L8.72281 18.5058L8.53494 18.4924L8.19944 18.4655L8.05183 18.5326L8.11893 18.5863L7.98473 18.6131L7.83711 18.5058L7.6224 18.3447L7.59556 18.2106L7.79685 18.13L7.52846 17.9422L7.24664 18.0093L7.47478 18.224L7.13929 18.2508L7.00509 18.0898L6.88431 18.0093L6.79037 18.13L6.70986 17.9422L6.49514 17.8482L6.69644 17.6872L6.83063 17.7006H7.09903L7.24664 17.7945H7.58214L7.67608 17.8482L7.91763 18.1032L8.07867 18.3447L8.34706 18.3984L8.45442 18.2508L8.36048 18.0093H8.48126L8.77649 18.3179L8.87043 18.5595L9.44748 18.9084L9.66219 18.8144L9.99769 18.7205L10.2795 18.8413L10.5613 18.8681L10.6821 18.801L10.8968 18.7205L10.6821 18.5863L10.4003 18.5326L10.3332 18.2508L10.5211 18.4655H10.615L10.5211 18.1837L10.3332 18.224L10.2124 18.0898L10.1856 17.8751L10.2795 17.8482V17.7006L10.3734 17.6872C10.3469 17.4229 10.966 17.5941 10.3734 17.6872L10.4003 17.9153L10.615 18.1837L10.8968 18.4387L10.9236 18.5863L11.0176 18.7071L10.9907 18.9352L11.2591 19.2975L11.541 19.4854L11.8362 19.5525L11.957 19.7001H11.6886L11.8764 19.888L11.9972 19.8209L12.118 20.0491L12.5474 20.1698L12.9634 20.3174L13.1513 20.4382L13.2184 20.6664L13.2453 20.8811L13.4734 21.0019L13.46 21.0689L14.037 21.4447L14.3323 21.4984H14.6141L14.9496 21.6057H15.3924L15.6205 21.8741L15.6876 21.6057L15.8621 21.3373L15.8889 21.136V20.9079L15.7547 20.8006L15.6876 20.6395L15.3522 20.5724L14.9496 20.304L14.8422 20.6664L14.6409 20.6395L14.6543 20.5993L14.8288 20.6395L14.8959 20.3309L14.963 20.2235L15.1777 20.4114L15.218 20.2906L15.2045 20.3845L15.3522 20.5053L15.5132 20.3845V20.5322L15.7145 20.5456L15.8218 20.4114L15.9426 20.2906L16.2647 20.143V19.9149L16.305 19.7404H16.4257L16.5868 19.7941L16.6404 19.5794L16.7881 19.4586L17.0028 19.633V19.7001H17.0162L16.9759 19.982L17.0833 20.1564L17.0028 20.2772L16.7881 20.6529L16.6941 20.814L16.7075 20.9616L16.5733 21.0421C17.0052 21.4796 16.4892 21.1298 16.4257 21.0958L16.2647 21.1629L16.0231 21.2434L15.9963 21.4313L15.9426 21.6594L15.8218 21.901L15.9695 21.9681V22.1425L16.1439 22.1828L16.305 22.2767V22.4512L16.3989 22.6391L16.3318 22.8672L16.1171 23.1087L15.9426 23.3906L15.8218 23.7261L15.9292 23.9676L16.1573 24.3702L16.3586 24.4239V24.4105L16.4526 24.3702C16.5645 24.2351 16.5885 24.3314 16.4526 24.3702L16.3989 24.4373L16.3586 24.4239L16.4257 24.652L16.7344 24.7728L16.7881 24.9607L16.882 25.1485L17.1907 25.4035L17.3114 25.8598L17.5261 26.3563L17.6201 26.7321L18.0495 27.1615L18.1971 27.4299L18.5326 27.5373L18.9084 27.2554L18.8413 26.9199L18.5729 26.5039L18.5997 26.3563L18.224 25.7927L18.1971 25.4035C18.4011 25.0003 18.0939 25.2431 18.8144 25.8329C19.0058 25.9278 19.1499 25.7927 19.1499 25.7927L19.2975 25.6048L19.5794 25.7927L20.1027 25.8329L20.398 25.739L20.6798 25.8866L20.6261 25.6853L20.6932 25.7927L20.9616 25.8598V26.0342L21.0958 26.1013V25.8598C21.0535 25.6639 21.3073 25.6969 21.3105 25.8329L21.5386 26.0611L21.4447 26.2355L21.9547 26.5979L22.1157 26.7321L22.2499 26.9065V27.0005L22.3841 27.2689L22.5854 27.5775L22.8672 27.8056L23.0282 28.2753L23.2698 28.6511V28.7853L23.2966 29.1476L23.3637 29.5502L23.565 29.6844L23.6724 30.2212L23.8468 30.3822L23.9139 30.8519L24.1152 31.1203V31.429L24.3836 31.6571L24.2092 31.8987L24.2763 32.1671L24.2226 32.1939L23.8871 33.4688L24.1286 33.6566L24.0347 34.0324L23.8871 34.4618L23.9408 34.7034H24.2226L24.1689 34.4618L24.652 34.5155L24.6118 34.4618L24.8399 33.9921L24.7057 33.6164L24.5044 33.2809L24.746 33.4151L24.9338 32.9991L24.9875 33.509L24.8936 33.9385L24.7996 34.2203L24.746 34.5558L24.5044 34.8376L24.5581 35.0255L24.8399 35.4146L24.9875 35.7367V36.0722L25.0814 36.8371L25.9 37.7765V38.0717L26.0342 38.3938L26.2355 38.7293L26.4771 39.0111L26.665 39.5345L26.7992 39.6821L26.8528 39.4405L26.665 38.9708L26.4234 38.2059L26.3697 37.8302V37.5484L26.0342 37.1189L25.9403 36.7432L26.0342 36.5016L26.0074 36.3003L26.0879 36.1259L26.0342 35.7367L26.1819 35.5488L26.3295 35.5086L26.571 35.0791L26.7589 35.1328L26.8528 34.9315L27.0407 34.7034L27.1883 34.7973L27.3762 35.267L27.4299 35.4549L27.7117 35.5488L27.9533 35.5086L28.1009 35.4146L28.2351 35.4549L28.1948 35.6428L28.3424 35.9782L28.3827 36.2198L28.5303 36.3137L28.7719 36.0319L29 35.938L28.7719 35.5086L28.7182 35.0791L28.6779 34.5558L28.5303 34.0324L28.4766 33.5627L28.5303 33.187V32.8515L28.5706 32.3281L28.7719 31.9926L28.6242 31.5229L28.4364 30.7714L28.2888 30.248L28.5303 30.342V29.9125L28.4364 29.5368L28.3424 29.1476V28.8658L28.2351 28.3961L28.1411 27.8325L28.0069 27.3494L28.1411 27.2554L28.0472 26.7857L28.0069 26.41L27.7117 26.1148L27.5775 25.5511L27.6714 25.3096L27.2823 25.1217L27.0944 24.746L27.242 23.981L27.0407 23.7529L27.0005 23.5113L26.9468 23.1758L26.9065 22.8001L27.242 22.572L27.1883 22.3707L27.0407 22.2365L27.1347 22.0486L27.0005 21.7534L26.7589 21.4313L26.665 20.5724L26.571 20.3443L26.4771 20.0088L26.6113 19.6733L26.3697 19.5794L26.2758 19.7672L26.1819 20.1027L26.0879 19.727L25.9403 19.4854H25.7122L25.323 19.8612L25.2291 20.0088C25.35 20.0719 25.3046 20.2322 25.2291 20.1027L24.9338 20.143L24.6118 19.5794H24.4641L24.2763 19.7672L24.4641 20.5724L24.5581 21.0958L24.4105 21.2837V21.5655L24.1286 21.4715L23.7932 21.7534L23.4577 22.3304L23.31 22.7598L23.5516 23.1758L23.5919 23.7797L23.5382 23.9408H23.3637V24.0884L22.9745 24.5581H23.0014C23.1996 24.6474 22.8839 24.58 22.5854 24.652L22.4512 24.8265C22.3317 24.912 22.1827 24.8365 22.2499 24.6923L21.9815 24.5849L22.0217 24.3568L21.7802 24.0213V23.7529L21.7131 23.4442L21.5118 23.0416L21.3105 22.7062L21.0019 22.6391L20.9616 22.8806L20.8945 23.149V23.3503L20.9616 23.5516L21.0689 23.8468L20.9348 23.981L20.7335 23.9139L20.7066 23.9273L20.7335 23.7663L20.6395 23.5784L20.559 23.4711L20.5187 22.8269L20.5322 22.7464L20.4785 22.6793L20.4248 22.5585L20.4382 22.478L20.5053 22.4243L20.3309 22.3304L20.3174 22.2365L20.5322 22.0888L20.3309 21.9949L20.1967 21.5923L20.0759 21.1763L19.8209 20.9884V20.8811L19.8746 20.8408L19.7538 20.7871L19.7672 20.6529L19.5659 20.4516L19.5123 20.3174L19.5257 20.1027L19.4988 20.0222L19.5391 19.9551L19.7001 20.1027H19.7941V19.7941L19.727 19.7404L19.6599 19.8343L19.5391 19.7941L19.5123 19.5123L19.633 19.4183H19.7941L19.888 19.4854L20.0356 19.2975L19.9417 19.1097L19.9954 18.9218L20.1027 18.8144L20.0893 18.7071L19.9417 18.5326L20.0893 18.2508L20.2772 18.2106L20.1832 17.969L20.4382 17.8482V17.7811L20.8006 17.8751L20.8677 17.6335L20.9884 17.4725L21.0421 17.298L20.8945 17.1101L20.9482 16.9759H21.1629L21.4044 17.0967H21.6594L21.8741 17.2578L22.2096 17.2041L22.5183 17.0162V16.5197L22.6256 16.4794V16.3855L22.5049 16.2781V16.211L22.5854 16.1573L22.572 16.1842L22.7867 16.5465L23.0014 16.6941L23.0685 16.8015L23.1893 16.8552L23.31 16.7612L23.2161 16.6136V16.1708L23.3369 16.1439L23.404 16.2915H23.6187L23.82 16.2379L23.7261 16.3318L23.9139 16.4928L24.0347 16.7612H24.1957L24.2494 16.2915L24.3702 16.1439V15.6205L24.2763 15.5266L24.4373 15.3656L24.5849 15.379L24.6118 15.4729L24.652 15.5937L24.7728 15.5534L24.7191 15.3656L24.5312 15.1911L24.7191 15.1509L25.2022 15.218H25.5109L25.6853 14.8825V14.7483L25.5646 14.5738L25.6048 14.1578L25.9671 13.9162L26.0342 13.4868L26.2087 13.1782L26.2758 13.0171L26.3295 12.8427H26.3026L26.5174 12.4401L26.5442 12.279L26.3697 12.0912L26.571 11.9704L26.7992 11.9033L27.2152 11.9704L27.497 11.9972L27.6446 11.8496L27.7385 11.9033H27.8325L27.8593 11.541L27.7654 11.4068L27.5507 11.3799L27.6446 11.2591L27.4299 11.192L27.336 10.9773L27.3762 10.8297L27.1347 10.6955L26.8797 10.615V10.4271H26.7857L26.7052 10.5076L26.5174 10.454L26.2355 10.3063L26.1148 10.2929V10.1721L25.9403 10.0782L25.8464 10.1185L25.7524 10.0514L25.6585 10.0782L25.4438 9.80981L25.1754 9.71587H24.7996L24.652 9.90375L24.491 9.76955L24.0615 9.83665L23.3369 9.80981L23.1893 9.98427L22.9745 9.90375H22.9074L22.8404 10.0245L22.9343 10.1185L22.8404 10.105L22.478 10.199L22.4109 10.0514L22.2901 10.0245V9.83665L21.9278 10.0245L21.7534 9.98427L21.6594 10.0782H21.4447L21.136 9.89033L20.8542 9.79639L20.7603 9.90375L20.1564 9.59509L19.5123 9.71587L19.1768 9.64877H18.9084L18.5326 9.71587L18.5192 9.75613L18.5058 9.70245L18.1971 9.95743L18.0093 9.86349L17.9287 9.93059L17.3114 9.90375L17.1638 9.70245L16.7612 9.95743L16.6941 9.89033L16.4928 9.86349L16.372 10.1453L16.4526 9.90375L16.4928 9.79639L16.372 9.71587L16.211 9.86349L16.0231 9.76955L15.9024 9.83665L15.5937 9.79639L15.2985 9.90375L15.0569 9.99769L14.5604 9.90375L14.4933 9.76955H14.2786L14.1578 9.67561L14.037 9.70245L14.0504 9.74271L13.9833 9.64877H13.8223L13.5539 9.528L13.1916 9.48774L12.9366 9.40722L12.6279 9.29986L12.5072 9.21934L12.2656 9.08515L12.0912 8.93753C12.037 9.00764 11.9568 9.04845 11.9301 8.99121L11.7154 8.93753L11.5946 9.09857H11.4202L11.2591 8.99121L11.286 8.78991L11.1384 8.65571L11.2055 8.27996C11.0313 8.14214 11.1651 8.27996 11.2323 8.27996L11.2591 8.01157L11.3262 7.94447L11.3799 7.72975L11.4068 7.354L11.5275 7.11245V6.49514L11.3128 6.3341L11.3531 6.14623L11.2323 6.11939V5.97177L11.3799 5.83757L11.286 5.66312L11.192 5.50208L11.3128 5.34105L11.286 5.07265L11.5007 4.88478L11.6215 4.764V4.6969L11.447 4.6298L11.2055 4.54928L11.447 4.33457H11.2055L11.0981 3.98565L10.9505 3.93198V3.79778L11.0444 3.7441L10.8029 3.34151L10.7358 3.12679H10.4674L10.3734 3.20731L10.3063 3.05969L10.3332 3.00602L10.3466 2.89866L10.4405 2.80472L10.3063 2.68394H10.0916L10.0111 2.75104L10.0379 2.89866L9.99769 3.00602L9.85007 3.18047H9.75613V3.30125L9.79639 3.39519L9.85007 3.48913L9.75613 3.65016L9.85007 3.70384L9.89033 3.62332L9.94401 3.52938L10.0111 3.51596L10.0379 3.70384L10.105 3.7441V3.86488H9.89033L9.63535 4.05275L9.66219 4.26747L9.78297 4.29431V4.41509L9.66219 4.45534L9.60851 4.54928L9.4609 4.41509L9.48774 4.29431L9.44748 4.20037H9.11199V4.17353L9.00463 4.24063L8.91069 4.14669L8.78991 4.10643L8.77649 3.98565L8.68255 3.95882L8.53494 4.22721L8.22628 4.14669L8.05183 3.95882L7.86395 3.86488L7.6895 3.83804L7.67608 3.79778L7.77001 3.7441L7.74317 3.6099L7.5553 3.42203L7.16613 3.34151L6.95141 2.91208L7.03193 2.84498L7.00509 2.71078L6.81721 2.49607L6.69644 2.34845V2.13373L6.83063 2.28135H6.97825L7.00509 2.20083L6.91115 2.0398H6.61592L6.7367 1.9056L6.61592 1.75798L6.76354 1.73114L6.69644 1.57011L6.37436 1.59695L6.24017 1.44933L6.02545 1.38223L5.94493 1.32855V1.18093L5.73022 1.26145L5.48866 1.61037L5.54234 1.82508L5.7839 1.94586L5.85099 1.87876L5.97177 1.89218L6.03887 2.01296L5.90467 2.13373L5.99861 2.28135L6.18649 2.13373L6.26701 2.32161L6.4012 2.34845L6.52198 2.50949L6.3341 2.59L6.32068 2.88524L6.30727 2.77788V2.60342L6.15965 2.68394L6.11939 2.63026H5.90467L5.85099 2.71078L5.7839 2.59L5.68996 2.46923L5.56918 2.29477L5.30079 2.28135L5.16659 2.44239L5.27395 2.50949L5.30079 2.68394L5.16659 2.71078L5.04581 2.56317L4.8982 2.50949L4.99213 2.25451L4.87136 2.16057L4.75058 2.13373L4.6298 2.25451L4.5627 2.20083L4.40167 2.34845L4.22721 2.41555L4.03933 2.44239L4.06617 2.34845L4.28089 2.30819L4.25405 2.09348H4.5627L4.50902 1.99954V1.89218L4.32115 1.91902V1.87876L4.22721 1.79824L4.16011 1.73114L4.22721 1.57011L4.16011 1.48959L4.03933 1.54327L3.98565 1.44933L3.85146 1.35539L3.7441 1.23461L3.677 1.04674L3.55622 1.18093L3.36835 1.14068L3.34151 1.04674L3.15363 0.979639L3.12679 0.832022L2.93892 0.778343L2.88524 0.617307L2.69736 0.670986L2.50949 0.48311L2.48265 0.308653L2.42897 0ZM10.0648 19.217L10.0916 19.1499H10.6553L10.8297 19.3646L11.0444 19.5257L11.0176 19.2707L10.8565 19.056L10.5882 19.0157L10.0648 19.0292V19.217ZM15.3253 23.8737L15.2045 24.1018L15.2985 24.2897L15.5669 24.2628L15.7547 24.491L15.8487 24.3434L15.8084 24.1018L15.7145 23.9273L15.5132 23.8468L15.3253 23.8737ZM18.4521 9.83665H18.4789C18.4356 10.3404 18.4372 10.3441 18.4521 9.83665ZM16.7612 19.633L16.627 19.9014L16.3989 19.8478L16.3855 20.0222L16.4391 20.1027L16.4123 20.3309L16.5465 20.5187L16.6002 20.6261L16.6941 20.6127L16.8149 20.4114L16.9625 20.1698L16.8954 19.9954V19.7941L16.7612 19.633ZM16.3452 20.3845L16.0366 20.398L15.8218 20.6261L15.8621 20.7335L15.956 20.8811L15.9963 21.136L16.3184 20.9884L16.6404 20.9079L16.4928 20.6395L16.3452 20.3845ZM14.7751 21.6326L15.3119 22.1023L15.3924 21.7668L14.7751 21.6326ZM16.8686 25.9269L16.3989 25.9671L16.2647 26.1282L15.956 26.3026L15.7547 26.6381L15.7279 26.9334L15.956 27.2018L16.1976 27.4031V27.7788L16.3318 28.1411L16.466 28.5169L16.5062 28.9463L16.466 29.5502L16.1976 29.9528L15.8889 30.2883L16.1573 30.5567L15.9963 30.7848C15.9963 30.7848 16.0902 30.9594 16.0902 31.0935C16.0902 31.2276 16.1976 31.2545 16.1976 31.2545L16.466 31.0935L16.6673 30.9861L16.7075 30.7848L17.1101 30.6506L17.2443 30.3822L17.4859 30.2212V29.9796V29.6844L17.553 29.3758L17.6201 29.1476L17.7543 28.8524V28.4095L17.8616 28.3156L17.8885 27.9398L17.7543 27.7385L17.5127 27.4433L17.1772 27.0407L16.9759 26.3026L16.8686 25.9269ZM20.4651 26.0342L20.7335 26.3966L20.8274 26.3697L20.7603 26.1282L20.4651 26.0342ZM19.5391 26.1148L19.9685 26.5039L20.398 26.6918L20.4382 26.41L20.1564 26.1684L19.5391 26.1148ZM18.7205 26.41L18.9084 26.9736L18.9621 27.4031L19.2036 27.4433L19.5391 27.3091L19.6733 27.0273L19.4854 26.6918L19.2439 26.41H18.7205ZM20.6664 26.7052L20.8677 27.0676L21.0019 27.2689V27.4031L20.9348 27.4433L20.8677 27.7788L20.9616 28.1411L21.2702 28.4766L21.4715 28.584V28.7853L21.5118 28.8524H21.7802L21.9547 28.6511L22.0217 28.4498V28.2485L21.9547 28.0472L21.4044 27.1347L21.3776 26.9334L20.6664 26.7052ZM19.9149 26.7857V27.0273V27.4031L20.398 27.5373L20.4382 27.2152L20.304 26.9736L19.9149 26.7857ZM15.5266 27.3762V27.4031C15.1136 27.4309 15.5266 27.386 15.5266 27.3762ZM18.6266 27.7788L18.8681 28.4901L18.9084 28.9597L18.8681 29.4429L18.8144 29.9662L18.7742 30.4359L18.9084 30.4762L19.2036 30.1541L19.5391 29.9125L19.633 29.3892L19.6733 28.8658L19.4854 28.6377L19.4452 28.2485L19.2439 27.8325L18.6266 27.7788ZM18.2911 28.7182L18.1569 29.1476L17.9958 29.6441V30.1138L18.3313 30.4896V30.0467V29.6173L18.4924 29.1745L18.5326 28.9463L18.2911 28.7182ZM15.7279 30.6909L15.4193 30.8922V31.1606V31.5229L15.5937 31.3619L15.795 31.1203L15.8218 30.8922L15.7279 30.6909ZM14.7483 30.7177L14.547 31.1606L14.3994 31.429V31.7242L14.2652 31.9926L14.1981 32.3683L14.4396 32.261L14.547 31.9255L14.6409 31.6974L15.0167 31.8584L15.1777 31.6303L15.2851 31.3216L15.2448 31.0532L15.0838 30.8922L14.7483 30.7177ZM16.6002 31.1874L16.5062 31.4558H16.8417L16.6002 31.1874ZM15.795 31.4558L15.4863 31.7645L15.3924 32.0597L15.6608 32.1939L15.8621 31.9658L15.795 31.7242V31.4558ZM16.2647 31.4558L16.0902 31.6974L16.3318 31.8584L16.466 31.7242L16.2647 31.4558ZM6.52198 31.6437L6.30727 31.7376L6.36094 31.9255L6.49514 32.1402L6.37436 32.5428L6.4012 32.6904L6.58908 32.7307L6.81721 33.0393L7.00509 33.0662L7.07219 32.9186L7.04535 32.7844L6.95141 32.6636L6.79037 32.6367L6.61592 32.4891L6.64276 32.0865L6.52198 31.6437ZM24.0347 31.6705L23.5516 31.7645L23.7932 32.0463L23.7395 32.7038L23.6992 33.0393L23.981 32.5696L24.1286 32.1402L24.0347 31.6705ZM8.02499 32.6367L7.98473 33.0662L8.2397 33.2272L8.32022 32.9722L8.02499 32.6367ZM6.75012 33.5359C6.74327 33.5359 6.7367 33.547 6.7367 33.5627C6.7367 33.58 6.74218 33.5975 6.76354 33.6164C6.78003 33.6314 6.80165 33.6432 6.80379 33.6432C6.8059 33.6432 6.80379 33.6306 6.80379 33.6164C6.80379 33.5991 6.79361 33.5794 6.77696 33.5627C6.76131 33.547 6.75697 33.5359 6.75012 33.5359ZM26.5845 39.9907C26.4917 39.9907 26.346 40.0065 26.4637 40.1249C26.5511 40.2129 26.5195 40.2535 26.5442 40.3531C26.547 40.3461 26.619 39.9907 26.5845 39.9907Z" fill="url(#paint0_linear_1055_858)"/>
</g>
<defs>
<linearGradient id="paint0_linear_1055_858" x1="5.36788" y1="3.00602" x2="23.404" y2="34.5692" gradientUnits="userSpaceOnUse">
<stop stop-color="#833AB4"/>
<stop offset="1" stop-color="#FFD700"/>
</linearGradient>
</defs>
</svg>
