<svg width="14" height="15" viewBox="0 0 14 15" fill="none" xmlns="http://www.w3.org/2000/svg">
<path id="call" fill-rule="evenodd" clip-rule="evenodd" d="M12.9853 7.43727H14.0003C13.9869 7.31491 13.9755 7.19367 13.9641 7.07338L13.9641 7.07334L13.9641 7.0733C13.9412 6.82952 13.9186 6.58969 13.8805 6.35261C13.4583 3.72133 11.333 1.54385 8.72051 1.06155C8.54458 1.02899 8.36685 1.00367 8.18912 0.978345C8.10026 0.965682 8.0114 0.95302 7.92276 0.939453H7.48633V1.93661C9.00875 1.97121 10.3079 2.49624 11.3716 3.56463C12.4332 4.63098 12.9508 5.93746 12.9853 7.43524V7.43727ZM13.58 11.5641C12.7092 10.9373 11.7998 10.3716 10.8356 9.90152C10.249 9.61662 10.1536 9.64511 9.7212 10.1437C9.59637 10.2871 9.47001 10.4291 9.34365 10.571C9.21729 10.713 9.09092 10.8549 8.96608 10.9984C8.90315 11.0717 8.84225 11.0798 8.74888 11.0554C7.79076 10.7888 6.94633 10.3065 6.1912 9.66953C5.08694 8.73749 4.30542 7.58567 3.89335 6.18964C3.86696 6.09807 3.87508 6.03498 3.94816 5.96986C4.24859 5.70531 4.54698 5.43872 4.84538 5.17213C5.29195 4.77327 5.31631 4.68169 5.06258 4.14038C4.61803 3.19409 4.06386 2.31293 3.46707 1.46025C3.37281 1.32484 3.24928 1.21094 3.12557 1.09687L3.12557 1.09686C3.07079 1.04636 3.01598 0.995817 2.96366 0.943359H2.77691C2.36078 1.18146 2.02787 1.51927 1.72542 1.87947C1.29415 2.39059 0.880908 2.91827 0.468894 3.44439L0.267947 3.70081C0.19893 3.789 0.142544 3.88803 0.0861581 3.98707C0.057965 4.03659 0.0297719 4.08611 0 4.13427V4.4151C0.00554211 4.44209 0.0117018 4.46939 0.0178769 4.49675L0.0178778 4.49676C0.0275346 4.53955 0.037229 4.58251 0.0446578 4.62471C0.223289 5.67478 0.61709 6.64752 1.13878 7.56532C2.54347 10.0318 4.46579 12.0037 6.85904 13.5137C7.87196 14.1527 8.9539 14.6411 10.1353 14.8812C10.4784 14.9504 10.8011 15.0013 11.13 14.7693C12.0495 14.1181 12.9284 13.4201 13.6876 12.5837C14.0997 12.1299 14.0814 11.9223 13.5821 11.5641H13.58ZM7.49609 4.4414V3.46052V3.45849C9.61734 3.39744 11.5214 5.26558 11.4666 7.44102H10.4882C10.4638 6.62701 10.1857 5.91069 9.60313 5.32867C9.02461 4.74869 8.3182 4.46582 7.49609 4.4414Z" fill="#FFD700"/>
</svg>
