<svg width="22" height="40" viewBox="0 0 22 40" fill="none" xmlns="http://www.w3.org/2000/svg">
<g id="Group 1171275401">
<path id="Vector" fill-rule="evenodd" clip-rule="evenodd" d="M21.7057 26.7707C21.4952 26.6036 21.3087 26.4084 21.1513 26.1905C20.8102 25.6399 20.324 25.1938 19.746 24.9013C19.4437 24.7094 19.157 24.4939 18.8887 24.2567C18.7856 24.1729 18.792 24.0955 18.8887 23.9601C19.0606 23.6491 19.1989 23.3206 19.3012 22.9803C19.3492 22.8714 19.3734 22.7536 19.3722 22.6347C19.3711 22.5157 19.3446 22.3984 19.2946 22.2904C19.2446 22.1825 19.1722 22.0865 19.0822 22.0087C18.9922 21.9309 18.8867 21.8732 18.7727 21.8393C18.2956 21.6073 18.2118 21.3945 18.3794 20.8402C18.4157 20.7376 18.4267 20.6277 18.4115 20.5199C18.3963 20.4122 18.3553 20.3097 18.2921 20.2211C18.2288 20.1325 18.1451 20.0605 18.0481 20.0112C17.9511 19.9619 17.8436 19.9367 17.7348 19.9377C17.6809 19.9313 17.6289 19.9137 17.5823 19.8859C17.5356 19.8582 17.4954 19.8209 17.4641 19.7765C17.4229 19.73 17.3925 19.675 17.3749 19.6154C17.3573 19.5558 17.3529 19.4931 17.3621 19.4317C17.3713 19.3702 17.3939 19.3116 17.4282 19.2598C17.4625 19.208 17.5078 19.1644 17.5608 19.1319C17.8508 18.8741 17.8315 18.6807 17.4899 18.4873C17.3803 18.4293 17.3094 18.3713 17.3223 18.223C17.3674 17.8427 17.3803 17.4559 17.419 17.0756C17.419 16.9789 17.477 16.8371 17.5543 16.7984C17.6324 16.7667 17.6954 16.7062 17.7302 16.6294C17.765 16.5527 17.7689 16.4655 17.7413 16.3858C17.7294 16.2707 17.7012 16.1578 17.6575 16.0506C17.2697 14.956 16.727 13.9227 16.0459 12.9822C15.921 12.835 15.8189 12.6698 15.7429 12.4923C15.6979 12.3497 15.6979 12.1966 15.7429 12.054C15.8912 11.5769 16.0652 11.1064 16.2393 10.6422C16.4133 10.1781 16.5552 9.88803 16.6776 9.49481C16.6962 9.34894 16.6644 9.20109 16.5874 9.07581C16.4069 8.77928 16.1619 8.51499 15.9879 8.20557C15.9225 8.05153 15.8239 7.91385 15.6991 7.8024C15.5743 7.69096 15.4263 7.6085 15.2659 7.56095C15.1278 7.53259 14.998 7.47315 14.8863 7.38715C14.7746 7.30115 14.684 7.19084 14.6213 7.06459C14.4626 6.82112 14.3687 6.54119 14.3484 6.2513C14.3281 5.9614 14.3821 5.67112 14.5053 5.40791C14.5614 5.30154 14.5786 5.17888 14.5539 5.06117C14.5292 4.94345 14.4641 4.83808 14.3699 4.76328C14.1443 4.55701 14.1507 4.51188 14.3699 4.31205C14.447 4.26615 14.5047 4.1936 14.532 4.10809C14.5593 4.02259 14.5544 3.93004 14.5182 3.84792C14.4509 3.67828 14.4334 3.493 14.4676 3.31377C14.5019 3.13453 14.5865 2.96876 14.7115 2.83586C14.8059 2.70474 14.8665 2.55245 14.8882 2.39239C14.9099 2.23233 14.892 2.06939 14.836 1.91789C14.7799 1.76638 14.6876 1.63096 14.567 1.52351C14.4464 1.41606 14.3012 1.33988 14.1443 1.30166C13.9831 1.26298 13.7704 1.2372 13.6866 1.12117C13.4545 0.805302 13.042 0.605469 12.9711 0.180018C12.9602 0.139897 12.9389 0.103324 12.9095 0.0739244C12.8801 0.0445252 12.8436 0.0233215 12.8035 0.0124164C12.6569 -0.0167631 12.5048 0.00585425 12.3731 0.0764019C12.2415 0.146949 12.1384 0.261047 12.0815 0.39919C11.8816 0.779517 11.6883 0.856872 11.2693 0.708609C11.2274 0.687667 11.1818 0.675224 11.1351 0.671996C11.0884 0.668768 11.0415 0.674821 10.9972 0.689803C10.9528 0.704786 10.9119 0.728402 10.8767 0.75929C10.8415 0.790177 10.8128 0.827724 10.7922 0.869764C10.5637 1.24091 10.3777 1.63663 10.2379 2.04942C10.0406 2.71863 9.99654 3.42366 10.1089 4.11222C10.1517 4.24901 10.1477 4.39617 10.0975 4.53042C10.0473 4.66467 9.95379 4.77837 9.83174 4.85353L9.55456 5.06626C9.45709 5.14073 9.38081 5.23941 9.33331 5.3525C9.28582 5.46559 9.26875 5.58915 9.28381 5.71088C9.2936 5.77929 9.2936 5.84875 9.28381 5.91716C9.21935 6.18145 9.07109 6.22013 8.85192 6.05253C8.61693 5.86652 8.36681 5.70049 8.10416 5.55617C7.6916 5.33055 7.58201 5.35634 7.27904 5.71733C7.1656 5.85126 7.01532 5.94893 6.84686 5.99821C6.6784 6.04748 6.49918 6.0462 6.33144 5.99451C5.95112 5.91716 5.57079 5.77534 5.48054 5.34989C5.32019 4.82755 5.10407 4.32399 4.83592 3.84792C4.78246 3.74507 4.7046 3.65689 4.60916 3.5911C4.51372 3.52532 4.40361 3.48393 4.28846 3.47057C4.17332 3.45721 4.05666 3.47229 3.94869 3.51447C3.84072 3.55666 3.74474 3.62467 3.66915 3.71255C3.63325 3.76215 3.60884 3.81912 3.59769 3.87933C3.58654 3.93954 3.58893 4.00148 3.60469 4.06065C3.65376 4.13491 3.67367 4.22469 3.66058 4.31273C3.64749 4.40078 3.60233 4.48089 3.53378 4.53767C3.32106 4.78907 3.32106 4.92444 3.53378 5.18229C3.60469 5.27254 3.69494 5.34989 3.77229 5.43369C4.10105 5.77534 4.41691 6.12988 4.77146 6.45864C4.93798 6.6472 5.14221 6.79873 5.37096 6.90343C5.919 7.07279 6.38073 7.44679 6.6602 7.94772C6.71157 8.03522 6.77444 8.11544 6.84714 8.18623C6.92245 8.27386 6.97718 8.37724 7.0073 8.4888C7.03742 8.60035 7.04216 8.71723 7.02119 8.83085C7.02119 9.08226 7.02119 9.3401 7.02119 9.59151C7.02564 9.77096 7.01051 9.95037 6.97607 10.1265C6.95441 10.1735 6.94224 10.2243 6.94024 10.276C6.93824 10.3277 6.94646 10.3792 6.96443 10.4277C6.98239 10.4762 7.00974 10.5207 7.04493 10.5586C7.08011 10.5966 7.12243 10.6272 7.16945 10.6487C7.23868 10.6788 7.29964 10.7252 7.34719 10.7838C7.39474 10.8424 7.42749 10.9117 7.44266 10.9856C7.45783 11.0596 7.45498 11.1361 7.43436 11.2087C7.41373 11.2814 7.37594 11.3479 7.32416 11.4029C7.23314 11.5127 7.18912 11.654 7.20168 11.7961C7.22978 12.0247 7.30672 12.2445 7.4273 12.4407C7.60427 12.7055 7.70245 13.0151 7.71044 13.3334C7.71843 13.6518 7.63589 13.9659 7.47243 14.2392C7.36771 14.4414 7.32018 14.6683 7.33494 14.8955C7.34971 15.1227 7.42622 15.3416 7.55623 15.5285C7.72383 15.8121 7.8592 16.1151 8.0268 16.3987C8.11574 16.5957 8.24281 16.7732 8.40068 16.9209C8.75376 17.1763 9.12424 17.4068 9.50943 17.6106C10.1089 17.9394 10.1541 17.9974 10.1089 18.6807V18.8612C10.0864 18.9779 10.0942 19.0983 10.1314 19.2112C10.1686 19.324 10.2341 19.4254 10.3217 19.5058C10.3488 19.5411 10.3681 19.5818 10.3781 19.6252C10.3881 19.6686 10.3887 19.7136 10.3797 19.7572C10.1541 19.9184 10.1798 20.0924 10.3088 20.2858C10.3157 20.3285 10.3157 20.372 10.3088 20.4147H10.1218C10.0136 20.3767 9.89878 20.361 9.78431 20.3684C9.66984 20.3759 9.55806 20.4065 9.45569 20.4582C9.35333 20.51 9.26249 20.582 9.18864 20.6698C9.11479 20.7576 9.05946 20.8594 9.02597 20.9691C8.78746 21.4139 8.57473 21.8651 8.32333 22.297C8.11409 22.7992 7.78418 23.2421 7.36284 23.5863C7.3203 23.6163 7.28534 23.6558 7.26072 23.7017C7.2361 23.7475 7.22251 23.7985 7.22102 23.8506C7.23452 23.9026 7.23754 23.9569 7.2299 24.0101C7.22226 24.0634 7.20413 24.1146 7.17654 24.1607C7.14895 24.2069 7.11247 24.2472 7.0692 24.2791C7.02593 24.3111 6.97674 24.3341 6.9245 24.3469C6.84833 24.3848 6.78041 24.4374 6.72466 24.5016C6.48615 24.695 6.24764 24.8884 6.02203 25.0947C5.93102 25.1772 5.85281 25.2728 5.78996 25.3783C5.68682 25.5459 5.60302 25.7264 5.49988 25.9005C5.37902 26.0921 5.33525 26.3224 5.3774 26.5451C5.3777 26.5898 5.36869 26.6341 5.35093 26.6752C5.33318 26.7163 5.30707 26.7532 5.27426 26.7836C5.18699 26.8656 5.07173 26.9113 4.95195 26.9113C4.83218 26.9113 4.71691 26.8656 4.62964 26.7836C4.33956 26.5709 4.12039 26.6547 4.02369 26.9963C3.95725 27.1837 3.90341 27.3754 3.86254 27.57C3.85401 27.7121 3.81151 27.8501 3.7386 27.9724C3.66569 28.0946 3.5645 28.1976 3.44353 28.2727C3.33325 28.3346 3.24713 28.4319 3.19915 28.549C3.15117 28.666 3.14415 28.7958 3.17924 28.9173C3.21147 29.13 3.17924 29.3492 3.23081 29.5619C3.23327 29.6916 3.26407 29.8192 3.32106 29.9358C3.48815 30.248 3.5641 30.601 3.54023 30.9543C3.55591 31.3873 3.60548 31.8183 3.68849 32.2435C3.85561 32.8583 3.90375 33.4994 3.83031 34.1323C3.76585 34.5255 3.63047 34.9058 3.54667 35.2991C3.48915 35.5287 3.46313 35.7651 3.46932 36.0017C3.46932 36.324 3.55312 36.6463 3.59824 36.9622C3.60055 37.0838 3.6469 37.2005 3.72869 37.2906C3.81048 37.3807 3.92217 37.4381 4.04303 37.4521C4.2751 37.5037 4.51361 37.5359 4.74567 37.5875C4.84352 37.594 4.93611 37.6341 5.00776 37.7011C5.07941 37.7681 5.12574 37.8577 5.13889 37.9549C5.15315 38.2393 5.24695 38.514 5.40963 38.7478C5.43784 38.7922 5.45344 38.8434 5.45476 38.896C5.45202 38.9603 5.46265 39.0244 5.48598 39.0843C5.50931 39.1441 5.54482 39.1985 5.59028 39.244C5.63573 39.2894 5.69012 39.325 5.75002 39.3483C5.80992 39.3716 5.874 39.3822 5.93822 39.3795C6.05924 39.3825 6.17744 39.4167 6.28134 39.4788C6.38525 39.541 6.47134 39.6289 6.53128 39.7341C6.58935 39.847 6.68903 39.933 6.80929 39.9739C6.92956 40.0148 7.061 40.0074 7.1759 39.9532C7.6787 39.7598 8.17506 39.5536 8.67787 39.3731C8.85551 39.3011 9.04936 39.2789 9.23869 39.3086C9.36941 39.3428 9.50757 39.3351 9.63365 39.2865C9.75973 39.2379 9.86736 39.1509 9.94133 39.0379C10.003 38.9457 10.0839 38.868 10.1785 38.8102C10.2731 38.7523 10.3791 38.7156 10.4893 38.7027C10.5795 38.7027 10.6569 38.6253 10.7407 38.5931C10.916 38.5079 11.0969 38.4347 11.2821 38.3739C11.5013 38.3223 11.7269 38.3223 11.9268 38.2772C12.4167 38.187 12.855 38.0451 12.855 37.4972C13.1399 37.5601 13.4348 37.5634 13.721 37.5068C14.0072 37.4502 14.2786 37.335 14.5182 37.1685C14.6472 37.1022 14.7929 37.0753 14.9372 37.0911C15.1874 37.15 15.4502 37.1236 15.6837 37.0162C15.9173 36.9088 16.1083 36.7264 16.2264 36.498C16.3295 36.3562 16.4198 36.208 16.5294 36.0597C17.4483 34.9848 18.2947 33.8499 19.0627 32.6625L20.4551 30.2194C20.5498 30.0526 20.6598 29.8951 20.7839 29.7489C20.9257 29.5748 21.1062 29.4394 21.2545 29.2718C21.3529 29.1718 21.4278 29.051 21.4735 28.9182C21.5192 28.7855 21.5347 28.6442 21.5187 28.5047C21.4639 28.1037 21.5554 27.6963 21.7766 27.3573C21.8139 27.3156 21.8418 27.2665 21.8586 27.2131C21.8754 27.1598 21.8806 27.1035 21.8739 27.048C21.8672 26.9924 21.8487 26.939 21.8197 26.8912C21.7907 26.8434 21.7518 26.8023 21.7057 26.7707Z" fill="url(#paint0_linear_1055_879)"/>
<path id="Vector_2" fill-rule="evenodd" clip-rule="evenodd" d="M1.65185 38.5804C1.80655 38.4837 1.79366 38.3419 1.65185 38.2323C1.56706 38.1795 1.48723 38.1191 1.41333 38.0518C1.31133 37.9396 1.1869 37.8501 1.0481 37.789C0.909289 37.7279 0.759204 37.6967 0.607556 37.6973C0.607556 37.7295 0.504417 37.794 0.49797 37.8649C0.494911 37.9642 0.45913 38.0598 0.396186 38.1367C0.333241 38.2137 0.246656 38.2677 0.149875 38.2903C-0.0499582 38.3677 -0.0499582 38.5031 0.149875 38.6255C0.214337 38.6707 0.311029 38.7222 0.323922 38.7802C0.328553 38.8206 0.341426 38.8596 0.361739 38.8947C0.382053 38.9299 0.409376 38.9605 0.442014 38.9847C0.474651 39.0089 0.511909 39.0261 0.551474 39.0353C0.591039 39.0445 0.632069 39.0454 0.672019 39.0381C0.743423 39.0255 0.816994 39.0378 0.880379 39.073C0.943765 39.1082 0.993104 39.1642 1.02011 39.2315C1.05364 39.2739 1.09555 39.309 1.14325 39.3345C1.19094 39.36 1.24339 39.3754 1.2973 39.3797C1.35532 39.3797 1.43912 39.2573 1.4778 39.1735C1.51503 39.0883 1.53054 38.9953 1.52292 38.9027C1.5122 38.8423 1.51859 38.7801 1.54137 38.7232C1.56416 38.6662 1.60242 38.6168 1.65185 38.5804Z" fill="url(#paint1_linear_1055_879)"/>
<path id="Vector_3" fill-rule="evenodd" clip-rule="evenodd" d="M9.29034 20.3321C9.40796 20.2098 9.51573 20.0783 9.61265 19.9389C9.66039 19.8407 9.69506 19.7367 9.71579 19.6295C9.59331 19.6295 9.47083 19.5715 9.34835 19.5586C9.28136 19.5747 9.21646 19.5985 9.15496 19.6295C9.11968 19.6424 9.0873 19.6622 9.05973 19.6877C9.03215 19.7132 9.00992 19.744 8.99433 19.7782C8.97873 19.8124 8.97009 19.8493 8.96889 19.8869C8.9677 19.9244 8.97398 19.9618 8.98736 19.9969C8.98736 20.1065 9.14207 20.1903 9.29034 20.3321Z" fill="url(#paint2_linear_1055_879)"/>
<path id="Vector_4" fill-rule="evenodd" clip-rule="evenodd" d="M2.07737 38.6889C1.91674 38.7687 1.77583 38.8832 1.66481 39.0241C1.53588 39.1917 1.61969 39.3206 1.89043 39.3206C2.00467 39.2658 2.12325 39.2205 2.24497 39.1852C2.41257 39.1466 2.48993 39.0628 2.43836 38.8952C2.4314 38.8561 2.41596 38.8191 2.39311 38.7866C2.37026 38.7542 2.34057 38.7272 2.30613 38.7075C2.27169 38.6879 2.23336 38.676 2.19383 38.6728C2.1543 38.6695 2.11454 38.675 2.07737 38.6889Z" fill="url(#paint3_linear_1055_879)"/>
<path id="Vector_5" fill-rule="evenodd" clip-rule="evenodd" d="M4.08129 38.6323C3.98515 38.7049 3.89464 38.7846 3.81055 38.8708L4.08129 39.0836C4.23339 39.054 4.38083 39.0041 4.51963 38.9353C4.59699 38.8773 4.62922 38.7484 4.68079 38.6452C4.57703 38.6033 4.46893 38.573 4.35848 38.555C4.26032 38.5516 4.16352 38.5786 4.08129 38.6323Z" fill="url(#paint4_linear_1055_879)"/>
<path id="Vector_6" fill-rule="evenodd" clip-rule="evenodd" d="M4.47474 37.6387C4.39439 37.6452 4.31959 37.6823 4.26566 37.7422C4.21172 37.8021 4.18275 37.8804 4.18466 37.961C4.18466 38.1479 4.30069 38.2382 4.54565 38.2446C4.79061 38.2511 4.86151 38.1995 4.86796 37.9997C4.85345 37.9036 4.80654 37.8155 4.73501 37.7498C4.66348 37.6842 4.57164 37.6449 4.47474 37.6387Z" fill="url(#paint5_linear_1055_879)"/>
<path id="Vector_7" fill-rule="evenodd" clip-rule="evenodd" d="M3.34735 27.1253C3.41564 27.1622 3.49529 27.172 3.57052 27.1529C3.64574 27.1338 3.71104 27.0871 3.75346 27.0221C3.83726 26.9126 3.83726 26.8159 3.689 26.745C3.54073 26.674 3.41826 26.5902 3.2571 26.5C3.2571 26.5 3.19908 26.5709 3.1733 26.616C3.14157 26.7082 3.14145 26.8083 3.17297 26.9005C3.20449 26.9927 3.26585 27.0718 3.34735 27.1253Z" fill="url(#paint6_linear_1055_879)"/>
<path id="Vector_8" fill-rule="evenodd" clip-rule="evenodd" d="M6.2993 24.7335C6.36376 24.6497 6.44756 24.4886 6.40888 24.4306C6.3702 24.3726 6.16393 24.2565 6.09946 24.2888C5.96829 24.389 5.8531 24.5085 5.75781 24.6433L6.02211 24.856C6.14459 24.8045 6.25417 24.798 6.2993 24.7335Z" fill="url(#paint7_linear_1055_879)"/>
<path id="Vector_9" fill-rule="evenodd" clip-rule="evenodd" d="M2.69604 39.2506C2.66564 39.2488 2.6352 39.2534 2.60665 39.264C2.57811 39.2746 2.55209 39.291 2.53026 39.3123C2.50843 39.3335 2.49125 39.359 2.47984 39.3873C2.46843 39.4155 2.46302 39.4458 2.46397 39.4762C2.46397 39.6503 2.63802 39.8501 2.79918 39.805C2.96033 39.7599 2.97323 39.6632 3.05703 39.5923C3.04659 39.502 3.00469 39.4183 2.93868 39.3558C2.87266 39.2933 2.78676 39.2561 2.69604 39.2506Z" fill="url(#paint8_linear_1055_879)"/>
<path id="Vector_10" fill-rule="evenodd" clip-rule="evenodd" d="M2.74115 38.5035C2.67024 38.3037 2.61222 38.1168 2.54132 37.9298C2.54132 37.8911 2.43173 37.8267 2.41239 37.8396C2.34156 37.8781 2.28336 37.9363 2.24479 38.0072C2.11587 38.3811 2.3157 38.568 2.74115 38.5035Z" fill="url(#paint9_linear_1055_879)"/>
<path id="Vector_11" fill-rule="evenodd" clip-rule="evenodd" d="M3.43104 37.0527C3.37947 37.1043 3.29567 37.1559 3.28277 37.2203C3.2441 37.4202 3.36013 37.5104 3.56641 37.5233C3.58223 37.4186 3.58223 37.3121 3.56641 37.2074C3.57285 37.1494 3.48905 37.1043 3.43104 37.0527Z" fill="url(#paint10_linear_1055_879)"/>
</g>
<defs>
<linearGradient id="paint0_linear_1055_879" x1="6.6222" y1="2.97971" x2="27.1979" y2="26.4277" gradientUnits="userSpaceOnUse">
<stop stop-color="#833AB4"/>
<stop offset="1" stop-color="#FFD700"/>
</linearGradient>
<linearGradient id="paint1_linear_1055_879" x1="0.326348" y1="37.8226" x2="0.919384" y2="39.3359" gradientUnits="userSpaceOnUse">
<stop stop-color="#833AB4"/>
<stop offset="1" stop-color="#FFD700"/>
</linearGradient>
<linearGradient id="paint2_linear_1055_879" x1="9.10703" y1="19.6162" x2="9.39606" y2="20.2959" gradientUnits="userSpaceOnUse">
<stop stop-color="#833AB4"/>
<stop offset="1" stop-color="#FFD700"/>
</linearGradient>
<linearGradient id="paint3_linear_1055_879" x1="1.76256" y1="38.7202" x2="1.9549" y2="39.3329" gradientUnits="userSpaceOnUse">
<stop stop-color="#833AB4"/>
<stop offset="1" stop-color="#FFD700"/>
</linearGradient>
<linearGradient id="paint4_linear_1055_879" x1="3.97163" y1="38.5941" x2="4.10055" y2="39.1107" gradientUnits="userSpaceOnUse">
<stop stop-color="#833AB4"/>
<stop offset="1" stop-color="#FFD700"/>
</linearGradient>
<linearGradient id="paint5_linear_1055_879" x1="4.31107" y1="37.6838" x2="4.5135" y2="38.2393" gradientUnits="userSpaceOnUse">
<stop stop-color="#833AB4"/>
<stop offset="1" stop-color="#FFD700"/>
</linearGradient>
<linearGradient id="paint6_linear_1055_879" x1="3.27168" y1="26.5493" x2="3.5137" y2="27.137" gradientUnits="userSpaceOnUse">
<stop stop-color="#833AB4"/>
<stop offset="1" stop-color="#FFD700"/>
</linearGradient>
<linearGradient id="paint7_linear_1055_879" x1="5.88014" y1="24.3259" x2="6.06791" y2="24.8534" gradientUnits="userSpaceOnUse">
<stop stop-color="#833AB4"/>
<stop offset="1" stop-color="#FFD700"/>
</linearGradient>
<linearGradient id="paint8_linear_1055_879" x1="2.57366" y1="39.2921" x2="2.77024" y2="39.798" gradientUnits="userSpaceOnUse">
<stop stop-color="#833AB4"/>
<stop offset="1" stop-color="#FFD700"/>
</linearGradient>
<linearGradient id="paint9_linear_1055_879" x1="2.3051" y1="37.8884" x2="2.59327" y2="38.4421" gradientUnits="userSpaceOnUse">
<stop stop-color="#833AB4"/>
<stop offset="1" stop-color="#FFD700"/>
</linearGradient>
<linearGradient id="paint10_linear_1055_879" x1="3.33145" y1="37.0878" x2="3.55285" y2="37.4348" gradientUnits="userSpaceOnUse">
<stop stop-color="#833AB4"/>
<stop offset="1" stop-color="#FFD700"/>
</linearGradient>
</defs>
</svg>
