<svg width="40" height="40" viewBox="0 0 40 40" fill="none" xmlns="http://www.w3.org/2000/svg">
<g id="Group 1171275874">
<circle id="Ellipse 32" cx="20" cy="20" r="20" fill="#393939"/>
<path id="Vector" d="M13.2663 9C13.3663 9 13.4663 9 13.5663 9C13.8234 9.05701 14.09 9.09976 14.3424 9.17577C15.2518 9.4323 16.0708 9.88361 16.8564 10.3919C17.0135 10.4917 17.1469 10.5012 17.323 10.4632C18.0039 10.3302 18.6848 10.1829 19.3704 10.1116C20.9988 9.94062 22.6082 10.0736 24.1937 10.4774C24.2794 10.5012 24.3985 10.4774 24.4699 10.4347C25.546 9.75059 26.6506 9.16627 27.9362 9C28.0028 9 28.0695 9 28.1362 9C28.2219 9.06651 28.3504 9.10926 28.3837 9.19477C28.8075 10.3207 28.9075 11.4656 28.5552 12.6295C28.5075 12.7862 28.5314 12.8812 28.6409 13.0048C29.1599 13.5891 29.5408 14.2542 29.7455 15.0048C30.1931 16.658 30.0217 18.2827 29.4551 19.8741C29.0075 21.1378 28.16 22.0784 26.9744 22.715C26.1935 23.133 25.3555 23.3848 24.4889 23.5416C24.1271 23.6081 23.7604 23.6603 23.3557 23.7221C23.7366 24.0879 23.9985 24.4964 24.1033 24.962C24.2128 25.4323 24.2937 25.9121 24.3032 26.3919C24.327 27.5796 24.3032 28.7625 24.2985 29.9501C24.2985 30.3587 24.2699 30.7672 24.7841 30.924C22.0463 30.9477 19.3133 30.9762 16.5088 31C16.985 30.7957 17.1135 30.6865 17.1135 30.3682C17.1183 29.5606 17.0992 28.7482 17.0897 27.9406C17.0897 27.9311 17.0659 27.9169 17.0564 27.9074C16.7421 27.9454 16.4279 27.9976 16.1136 28.0261C14.3329 28.1876 12.7283 27.4656 12.0998 25.7553C11.7998 24.943 11.2713 24.2732 10.5095 23.8076C10.3143 23.6888 10.1666 23.4941 10 23.3373C10 23.285 10 23.2375 10 23.1853C10.1286 23.133 10.2524 23.057 10.3857 23.0333C10.9285 22.9382 11.4094 23.1235 11.8569 23.4038C12.3283 23.6936 12.6807 24.1021 12.9711 24.5724C13.5472 25.4941 14.3567 26.0546 15.4708 26.0214C15.9565 26.0071 16.4326 25.8409 16.9135 25.7411C17.085 25.7078 17.1469 25.5938 17.1754 25.4276C17.2659 24.8242 17.5278 24.3017 17.942 23.8551C17.9706 23.8219 17.9944 23.7838 18.0277 23.7316C17.9372 23.7173 17.8706 23.7031 17.8087 23.6936C17.1373 23.5558 16.4517 23.4656 15.7994 23.2755C14.1996 22.81 12.9235 21.9074 12.176 20.3729C11.6427 19.2803 11.476 18.1021 11.4427 16.9002C11.3999 15.4038 11.8427 14.0926 12.8283 12.9572C12.8806 12.8955 12.9092 12.772 12.8806 12.7007C12.4902 11.5511 12.595 10.4157 12.9711 9.28504C13.0235 9.12827 13.0949 9.019 13.2663 9Z" fill="white"/>
</g>
</svg>
