<svg width="40" height="40" viewBox="0 0 40 40" fill="none" xmlns="http://www.w3.org/2000/svg">
<g id="Group 1171275873">
<circle id="Ellipse 32" cx="20" cy="20" r="20" fill="#393939"/>
<path id="Linkedin" fill-rule="evenodd" clip-rule="evenodd" d="M12.3967 14.8068C13.7202 14.8064 14.797 13.7226 14.7956 12.3923H14.7961C14.7947 11.0815 13.7139 10.0014 12.4021 10C11.0808 9.99864 9.99549 11.0887 10 12.4127C10.0041 13.7222 11.0903 14.8068 12.3967 14.8068ZM21.0447 18.4448C21.1428 18.3342 21.2348 18.2231 21.3254 18.1137C21.4906 17.9141 21.6509 17.7204 21.8349 17.5465C22.71 16.7193 23.7452 16.3023 24.9539 16.3127C25.6179 16.3181 26.2747 16.3662 26.9148 16.552C28.3794 16.9767 29.2306 17.9879 29.6365 19.4225C29.9407 20.4986 29.9972 21.6031 29.999 22.7114C30.001 23.8457 29.9995 24.9801 29.9979 26.1144C29.9963 27.3175 29.9947 28.5207 29.9972 29.7238C29.9977 29.9427 29.9366 30.0002 29.7215 29.9984C28.5204 29.9885 27.3194 29.988 26.1188 29.9984C25.9072 30.0002 25.862 29.9345 25.8625 29.7346C25.8693 27.5105 25.8711 25.2863 25.8638 23.0622C25.862 22.5047 25.8268 21.9476 25.6708 21.406C25.3838 20.4079 24.6709 19.8993 23.6281 19.9542C22.2042 20.0294 21.4633 20.7365 21.2816 22.1888C21.2382 22.5355 21.2179 22.8827 21.2179 23.2322C21.2184 23.9351 21.2184 24.6381 21.2184 25.3412C21.2183 26.8013 21.2182 28.2615 21.2237 29.7215C21.2246 29.9372 21.1704 30.0007 20.9507 29.9989C19.7411 29.988 18.5314 29.9894 17.3218 29.998C17.1279 29.9993 17.0718 29.9468 17.0723 29.75C17.0777 25.4676 17.0777 21.1848 17.0723 16.9024C17.0723 16.6903 17.1414 16.6413 17.3412 16.6427C18.4898 16.6513 19.6389 16.6522 20.7875 16.6422C20.9991 16.6404 21.0533 16.7088 21.0488 16.9096C21.0404 17.2764 21.0419 17.6433 21.0435 18.0102V18.0103V18.0103C21.0441 18.1553 21.0447 18.3003 21.0447 18.4453V18.4448ZM14.4649 24.7931V24.7932V24.7935C14.4643 26.4278 14.4637 28.0623 14.4703 29.6965C14.4712 29.9322 14.4129 30.0034 14.1697 30.0007C12.9691 29.9875 11.7685 29.9902 10.5683 29.9988C10.3758 30.0002 10.3179 29.9522 10.3184 29.7527C10.3242 25.4631 10.3238 21.1734 10.3193 16.8838C10.3193 16.7061 10.3622 16.6431 10.5498 16.644C11.7676 16.6517 12.9858 16.6544 14.2036 16.6426C14.4373 16.6404 14.4694 16.7315 14.4689 16.9323C14.4643 18.6041 14.4647 20.276 14.4651 21.9477L14.4653 23.3404C14.4653 23.8247 14.4651 24.3089 14.4649 24.7931Z" fill="white"/>
</g>
</svg>
