<svg width="42" height="26" viewBox="0 0 42 26" fill="none" xmlns="http://www.w3.org/2000/svg">
<g id="Group">
<path id="Vector" d="M27.0511 21.3258C27.0511 21.2835 27.0511 21.2411 27.0088 21.2411L26.9665 21.3258C26.8819 21.3258 26.9665 21.3681 27.0088 21.4104C27.0088 21.3681 27.0088 21.3258 27.0511 21.3258C27.0511 21.4104 27.0934 21.4104 27.0934 21.3258C27.0934 21.2411 27.0511 21.2411 27.0511 21.3258ZM41.3952 3.46967C41.3952 3.34273 41.2683 3.30042 41.1837 3.2581C41.0991 3.21579 41.1414 3.38504 41.0144 3.17348C40.9721 3.13117 40.9721 3.00423 40.9721 2.96191C40.9721 2.96191 41.0144 2.9196 40.9298 2.87729C40.8452 2.83497 40.8029 2.96191 40.7182 2.83497C40.6759 2.96191 40.6336 2.70803 40.6336 2.70803C40.549 2.45416 40.4644 2.15797 40.3797 1.90409C40.2951 1.69252 40.2951 1.56558 40.0835 1.48096C39.872 1.39633 39.9143 1.39633 39.745 1.52327C39.7027 1.56558 39.6181 1.65021 39.5335 1.65021C39.4065 1.65021 39.4488 1.6079 39.3642 1.56558C39.2796 1.52327 39.3642 1.39633 39.195 1.48096C39.1527 1.52327 39.1527 1.65021 39.1103 1.73483C39.0257 1.98871 38.9411 2.20028 38.8988 2.45416C38.8988 2.62341 38.8988 2.9196 38.8565 3.04654C38.9834 3.08885 38.8988 3.30042 38.8565 3.34273C38.7718 3.5543 38.6872 3.5543 38.8142 3.76586C38.6449 3.76586 38.7295 3.80817 38.6872 3.97743C38.6449 3.93511 38.5603 3.80817 38.5603 3.93511V3.8928C38.5603 3.93511 38.3487 4.06205 38.3064 4.06205C38.391 4.10437 38.3487 4.27362 38.3064 4.31593C38.2218 4.40056 37.9256 4.44287 37.7986 4.48518C37.3755 4.61212 36.9524 4.73906 36.5293 4.82369C36.3177 4.866 36.1907 4.90831 36.0215 4.99294C35.683 5.16219 35.683 5.45838 35.4714 5.75457C35.4714 5.75457 35.4714 5.71226 35.5137 5.71226C35.4714 5.71226 35.4714 5.75457 35.4291 5.79689V5.75457C35.4291 5.75457 35.4291 5.75457 35.3868 5.75457C35.3868 5.71226 35.3868 5.71226 35.3868 5.66995C35.3868 5.71226 35.3445 5.79689 35.3022 5.79689C35.2599 5.79689 35.2175 5.8392 35.2599 5.88151H35.3022C35.2599 5.96614 35.1752 6.00845 35.1752 6.13539C35.1752 6.13539 35.2175 6.13539 35.2599 6.22002C35.3022 6.22002 35.3022 6.1777 35.3445 6.13539C35.3445 6.22002 35.4291 6.13539 35.4291 6.13539C35.3868 6.1777 35.4291 6.26233 35.3445 6.26233C35.3445 6.26233 35.3445 6.26233 35.3445 6.22002C35.2175 6.26233 35.3868 6.34696 35.3868 6.43158C35.3868 6.64315 35.3868 6.51621 35.2599 6.64315C35.0483 6.85471 34.9214 7.02396 34.5828 7.02396C34.2867 7.06628 34.0328 6.98165 33.7366 7.10859C33.6943 7.10859 33.4827 7.19322 33.4404 7.27784C33.3981 7.36247 33.4827 7.53172 33.5673 7.53172C33.525 7.57403 33.652 7.65866 33.652 7.70097C33.652 7.7856 33.5673 7.87023 33.525 7.91254C33.3981 8.03948 33.3135 8.20873 33.1442 8.33567C33.1442 8.29336 33.1442 8.29336 33.1442 8.25104C33.0596 8.29336 33.0173 8.37798 32.9326 8.4203C32.8903 8.37798 32.7634 8.63186 32.6788 8.58955C32.5941 8.71649 32.3826 8.7588 32.2556 8.84343C32.1287 8.92805 32.0018 9.13962 31.8748 9.18193C31.7902 9.22424 31.7056 9.22424 31.5786 9.26656C31.3671 9.35118 31.3671 9.35118 31.1555 9.35118C31.1132 9.35118 31.0709 9.35118 31.0709 9.35118C31.1132 9.30887 31.1132 9.30887 31.1555 9.35118C31.1555 9.26656 31.0709 9.26656 31.0286 9.30887C31.0709 9.26656 31.0286 9.26656 31.0286 9.26656C30.9016 9.35118 30.7324 9.35118 30.6054 9.18193C30.6054 9.22424 30.6054 9.22424 30.5631 9.22424C30.5208 9.18193 30.6477 8.92805 30.69 8.92805C30.6054 8.71649 30.817 8.58955 30.8593 8.4203C30.8593 8.37798 30.9016 8.29336 30.9016 8.29336C30.9016 8.29336 31.0286 8.1241 30.9862 8.25104H31.0286C30.9862 8.25104 30.9862 8.29336 31.0286 8.29336C30.9016 8.29336 30.9016 8.29336 30.9016 8.33567C31.2401 8.16642 30.9439 7.48941 30.8593 7.23553C30.817 7.06628 30.7747 6.8124 30.5631 6.8124C30.4785 6.8124 30.1823 7.02396 30.2246 7.02396C30.0977 7.10859 30.14 7.36247 29.9284 7.32016C29.7592 7.27784 29.7592 6.93934 29.9707 6.98165C29.9707 6.93934 30.0554 6.72777 30.0977 6.68546C30.1823 6.60083 30.2246 6.38927 30.1823 6.22002C30.14 6.00845 29.8861 5.8392 30.1823 5.88151C30.14 5.88151 30.0977 5.8392 30.14 5.79689C30.013 5.66995 30.013 5.58532 29.8015 5.5007C29.6745 5.45838 29.5899 5.41607 29.5053 5.41607C29.4207 5.37376 29.4207 5.33144 29.336 5.33144C29.463 5.2045 29.2091 5.16219 29.1668 5.2045C29.1245 5.24682 29.2937 5.33144 29.2937 5.33144C29.2514 5.41607 29.0822 5.24682 29.0398 5.24682C28.9975 5.24682 28.9129 5.28913 28.8283 5.28913C28.9129 5.33144 28.659 5.66995 28.9552 5.62763C28.786 5.79689 28.7013 5.71226 28.659 5.88151C28.6167 6.00845 28.7436 6.22002 28.5744 6.30464C28.5744 6.22002 28.659 6.13539 28.6167 6.05076C28.5744 6.05076 28.5744 6.13539 28.5321 6.1777C28.6167 6.1777 28.5321 6.26233 28.5321 6.26233C28.5321 6.22002 28.5744 6.09308 28.5321 6.05076V6.00845C28.5321 5.96614 28.5321 5.92383 28.4898 5.88151C28.4898 5.88151 28.4898 5.88151 28.4898 5.92383C28.4898 5.88151 28.4898 5.8392 28.4898 5.79689C28.4475 5.8392 28.2782 6.13539 28.2359 6.05076C28.1936 6.13539 28.0666 6.26233 28.0666 6.34696C28.0243 6.4739 28.109 6.68546 28.0243 6.85471C28.0243 6.89703 27.9397 6.98165 27.9397 7.02396C27.9397 7.10859 27.982 7.19322 28.0243 7.32016C28.0243 7.40478 27.9397 7.40478 27.982 7.48941C27.982 7.57403 28.0666 7.65866 28.109 7.74329C28.3205 8.16642 28.4051 8.46261 28.2359 8.92805C28.1513 9.13962 28.109 9.26656 27.982 9.35118C27.8974 9.39349 27.5166 9.52044 27.5589 9.47812C27.5589 9.47812 27.5589 9.47812 27.5166 9.47812C27.5166 9.26656 27.305 9.0973 27.2627 8.92805C27.2204 8.7588 27.2627 8.58955 27.2627 8.4203C27.2204 8.16642 27.1358 8.03948 27.1781 7.70097C27.2204 7.40478 27.2627 7.10859 27.305 6.8124C27.305 6.72777 27.6012 6.05076 27.5166 5.96614C27.5589 6.00845 27.5589 5.92383 27.5589 5.88151C27.6012 5.88151 27.6012 5.8392 27.6012 5.79689C27.7281 5.88151 27.7281 5.54301 27.6012 5.66995V5.62763C27.5589 5.79689 27.4743 5.96614 27.3473 6.13539C27.305 6.1777 26.9665 6.68546 26.9242 6.64315C26.8396 6.51621 27.1358 6.13539 27.1781 6.09308C27.1781 6.09308 27.4319 5.41607 27.4743 5.33144C27.4743 5.37376 27.5166 5.45838 27.5166 5.5007C27.5166 5.45838 27.6858 5.28913 27.6858 5.28913C27.7281 5.24682 27.7704 5.28913 27.8128 5.24682C27.8128 5.28913 27.8128 5.33144 27.8128 5.33144C27.6435 5.33144 27.7704 5.50069 27.8128 5.54301C27.7704 5.45838 27.9397 5.28913 27.982 5.24682C28.109 5.11988 28.2359 5.16219 28.4051 5.07757C28.5744 4.99294 28.5321 4.90831 28.7436 4.95063C28.786 4.95063 29.0398 5.16219 29.0822 5.11988C29.0822 5.11988 29.0822 4.95063 29.0822 4.90831C29.1245 4.90831 29.1668 4.90831 29.1668 4.99294C29.2091 4.95063 29.2937 5.07756 29.2937 5.03525C29.3783 4.866 29.6322 5.03525 29.6745 4.95063C29.8015 5.03525 29.9284 4.95063 29.8438 4.78137C29.7592 4.69675 29.6745 4.78137 29.6745 4.866C29.6322 4.82369 29.463 4.82369 29.5476 4.73906C29.5053 4.73906 29.463 4.69675 29.463 4.69675L29.4207 4.35824C29.3783 4.31593 29.2091 4.44287 29.1668 4.48518C29.1245 4.48518 28.9129 4.48518 28.8706 4.48518C28.7013 4.40056 28.9129 4.2313 28.786 4.18899C28.7013 4.14668 28.5744 4.27362 28.4898 4.31593C28.3628 4.35824 28.2782 4.35824 28.1513 4.35824C27.9397 4.40056 27.8551 4.56981 27.6858 4.65443C27.7281 4.5275 27.5166 4.56981 27.6012 4.65443C27.5166 4.56981 27.2627 4.65443 27.1358 4.61212C26.9665 4.5275 26.8396 4.14668 26.5434 4.31593L26.5857 4.27362C26.4587 4.27362 26.4164 4.40056 26.3741 4.48518C26.2895 4.31593 26.7126 3.93511 26.6703 3.8928C26.6703 3.8928 26.8396 3.8928 26.8396 3.85049C26.8396 3.5543 26.2472 4.06205 26.2049 4.10437C26.2049 4.10437 26.2049 4.10437 26.2049 4.06205C26.0356 4.27362 25.8241 4.40056 25.5702 4.5275C25.5279 4.5275 25.4432 4.5275 25.4009 4.5275C25.3586 4.56981 25.3163 4.65443 25.274 4.69675C25.1894 4.73906 25.0201 4.866 24.8932 4.78137H24.9355C24.8932 4.78137 24.8508 4.73906 24.8085 4.69675C24.8085 4.69675 24.8085 4.69675 24.8508 4.69675C24.8085 4.69675 24.8085 4.69675 24.7662 4.69675H24.8085C24.7662 4.73906 24.7239 4.73906 24.7239 4.73906C24.7239 4.61212 24.7662 4.5275 24.8932 4.48518C24.8508 4.5275 24.7662 4.56981 24.7662 4.65443C24.8085 4.61212 24.8508 4.56981 24.8932 4.56981C24.8508 4.5275 25.0201 4.48518 25.0201 4.40056L24.9778 4.44287C24.9778 4.40056 25.1047 4.31593 25.0624 4.27362C24.9778 4.2313 24.9778 4.40056 24.9355 4.40056C24.9355 4.35824 24.8932 4.35824 24.9355 4.27362L24.8932 4.31593V4.27362C24.8508 4.31593 24.8085 4.31593 24.8085 4.35824C24.7239 4.27362 24.7662 4.44287 24.7662 4.44287C24.7239 4.44287 24.7239 4.44287 24.6816 4.44287C24.6816 4.40056 24.6816 4.40056 24.6393 4.35824C24.6393 4.40056 24.5123 4.44287 24.597 4.48518C24.5123 4.56981 24.0469 4.82369 23.92 4.73906C24.0046 4.73906 24.1738 4.5275 24.2162 4.48518C24.3431 4.35824 24.47 4.18899 24.597 4.06205C24.7662 3.8928 24.8932 3.76586 25.1047 3.68124C25.274 3.59661 25.5279 3.38504 25.6971 3.38504C25.4432 3.42736 25.2317 3.30042 24.9355 3.34273V3.30042C24.8085 3.34273 24.7662 3.30042 24.7239 3.17348C24.6393 3.21579 24.5547 3.30042 24.4277 3.34273C24.3854 3.38504 24.3008 3.34273 24.2162 3.38504C24.2585 3.30042 24.1738 3.34273 24.1315 3.30042C24.1738 3.17348 23.5815 3.00423 23.7084 3.21579C23.6238 3.2581 23.6238 3.08885 23.5815 3.08885C23.5391 3.04654 23.4968 3.04654 23.4122 3.00423C23.4122 2.96191 23.4545 2.96191 23.4545 2.9196C23.4968 2.79266 22.9044 2.83497 22.9044 2.87729C22.8621 2.9196 22.8621 2.96191 22.7352 2.96191C22.6929 2.96191 22.7352 2.87729 22.6929 2.87729C22.6083 2.87729 22.5659 2.87729 22.4813 2.83497C22.2698 2.79266 22.1851 2.70803 22.0582 2.62341L21.8889 2.45416C21.8466 2.45416 21.6351 2.75035 21.5927 2.53878C21.5927 2.49647 21.6351 2.49647 21.6774 2.49647C15.542 2.49647 9.4489 1.77715 3.56739 0V0.0423132C3.52507 1.60781e-07 3.48276 0.0423134 3.52507 0.0846264C3.44045 0.126939 3.52507 0.169252 3.52507 0.211565C3.56739 0.211565 3.48276 0.296191 3.52507 0.380817C3.44045 0.296191 3.31351 0.169252 3.2712 0.380817C3.2712 0.253878 3.14426 0.380818 3.14426 0.465444C3.14426 0.507757 3.31351 0.592383 3.2712 0.634696C3.2712 0.634696 3.31351 0.634696 3.35582 0.677009C3.35582 0.634696 3.39814 0.507756 3.35582 0.592382C3.35582 0.507756 3.44045 0.507757 3.35582 0.465444C3.39814 0.423131 3.35582 0.465443 3.39814 0.42313C3.44045 0.634696 3.35582 0.677009 3.35582 0.846261C3.35582 0.930887 3.44045 1.01551 3.39814 1.10014C3.52507 1.01551 3.39814 1.18476 3.52507 1.18476C3.48276 1.26939 3.39814 1.35402 3.44045 1.43864C3.39814 1.39633 3.39814 1.6079 3.39814 1.65021C3.31351 1.6079 3.39814 1.56558 3.35582 1.48096C3.31351 1.48096 3.2712 1.56558 3.2712 1.6079C3.2712 1.56558 3.31351 1.52327 3.35582 1.48096C3.31351 1.43864 3.35582 1.43864 3.31351 1.43864C3.35582 1.48096 3.39814 1.48096 3.35582 1.43864C3.39814 1.39633 3.39814 1.35402 3.44045 1.3117C3.44045 1.3117 3.44045 1.3117 3.39814 1.3117C3.44045 1.26939 3.48276 1.14245 3.44045 1.10014C3.39814 1.10014 3.35582 1.10014 3.39814 1.14245L3.01732 1.35402C3.05963 1.26939 3.22888 1.22708 3.18657 1.14245V1.18476C3.18657 1.22708 3.14426 1.22708 3.14426 1.26939C3.14426 1.35402 3.31351 1.01551 3.31351 1.01551C3.39814 1.05783 3.39814 0.761635 3.2712 0.930887C3.2712 0.930887 3.2712 0.930887 3.2712 0.888574C3.39814 0.846261 3.18657 0.719322 3.18657 0.888574C3.18657 0.803948 3.10194 0.803948 3.10194 0.888574C3.05963 0.719322 2.89038 0.719322 2.72113 0.677009C2.67881 0.677009 2.42494 0.550069 2.46725 0.550069C2.38262 0.634695 2.12874 -0.0423129 2.04412 0.465444C2.04412 0.677009 2.12874 0.803948 2.12874 1.01551C2.12874 1.26939 2.08643 1.52327 2.04412 1.73483C2.12874 1.73483 2.08643 1.6079 2.17106 1.65021C2.298 1.69252 2.08643 1.73484 2.298 1.77715C2.21337 1.77715 2.12874 1.77715 2.12874 1.81946C2.12874 1.77715 2.12874 1.73484 2.08643 1.77715C2.0018 1.81946 2.08643 1.98871 2.17106 2.03103C2.17106 2.03103 2.17106 2.03103 2.17106 1.98871C2.21337 1.98871 2.21337 1.98871 2.25568 2.03103C2.21337 2.03103 2.08643 2.20028 2.08643 2.20028C2.08643 2.15797 2.12874 2.07334 2.12874 2.03103C2.12874 1.98871 1.95949 2.41184 2.0018 2.41184C2.04412 2.41184 2.21337 2.49647 2.25568 2.45416C2.25568 2.49647 2.298 2.53878 2.34031 2.53878C2.298 2.53878 2.298 2.53878 2.25568 2.53878V2.5811C2.17106 2.5811 2.17106 2.49647 2.08643 2.53878C2.08643 2.5811 2.12874 2.5811 2.12874 2.62341C2.12874 2.5811 2.04412 2.49647 2.0018 2.49647C2.0018 2.70803 1.91718 2.83497 1.87487 3.04654C1.83255 3.13117 1.87487 3.17348 1.83255 3.21579C1.79024 3.08885 1.74793 3.34273 1.70561 3.38504C1.70561 3.38504 1.57867 3.59661 1.57867 3.68124C1.49405 3.68124 1.45174 3.8928 1.45174 3.97743C1.40942 3.97743 1.36711 4.14668 1.36711 4.14668C1.28248 4.2313 1.15554 4.69675 1.07092 4.82369H1.11323C1.07092 4.82369 0.901666 5.03525 0.901666 5.11988C0.859353 5.11988 0.647787 5.45838 0.647787 5.5007C0.605474 5.66995 0.647787 5.8392 0.563161 6.00845C0.563161 6.00845 0.563161 6.00845 0.605474 6.00845C0.478535 6.13539 0.563161 6.43158 0.563161 6.55852C0.563161 6.72777 0.563161 6.93934 0.478535 7.10859C0.393909 7.36247 0.26697 7.48941 0.0977178 7.70097C-0.0715344 7.95485 0.0130917 8.03948 0.0977178 8.29336C0.26697 8.67417 0.0130917 9.05499 0.0130917 9.43581C0.0130917 9.81663 0.520848 10.1551 0.26697 10.5359C0.26697 10.5359 0.309283 10.5359 0.351596 10.5359C0.351596 10.4936 0.605474 10.7898 0.647787 10.7898C0.393909 10.8745 0.605474 11.5938 0.6901 11.6784C0.817039 11.8477 1.0286 11.8477 0.901666 12.0592C0.817039 12.1862 0.774727 12.0592 0.732413 12.1438C0.605474 12.3554 0.859353 12.7362 0.943979 12.9478C0.986292 13.117 1.0286 13.244 1.15554 13.4132C1.19786 13.4555 1.28248 13.4979 1.28248 13.5825C1.28248 13.6248 1.19786 13.6671 1.24017 13.7094C1.28248 13.7941 1.3248 13.8364 1.36711 13.9633C1.36711 14.0479 1.28248 14.2595 1.28248 14.3441C1.28248 14.6403 1.74793 14.6403 2.0018 14.7673C2.21337 14.8942 2.25568 15.2327 2.55187 15.3596C2.72113 15.4443 2.76344 15.275 2.84807 15.5712C2.89038 15.6558 2.80575 15.6558 2.84807 15.7405C2.93269 15.8251 2.93269 15.6981 2.93269 15.7405C3.01732 15.7405 3.14426 15.9943 3.18657 15.952C3.2712 16.1213 3.44045 16.2482 3.48276 16.4598C3.52507 16.5444 3.44045 16.8406 3.48276 16.9252C3.44045 16.9675 3.48276 17.0098 3.48276 17.0522C3.31351 17.2214 4.03283 17.2637 4.03283 17.2637C4.54059 17.306 5.00603 17.3907 5.51379 17.433C5.42916 17.6022 5.38685 17.5599 5.51379 17.6869C5.64073 17.8561 6.06386 18.0254 6.23311 18.11C6.74087 18.4062 7.24862 18.7024 7.71407 18.9986C7.92563 19.1255 8.1372 19.2947 8.39108 19.3794C8.56033 19.4217 8.81421 19.4217 8.98346 19.464C9.57584 19.5486 10.1682 19.6333 10.7183 19.7179C10.7183 19.5909 10.7183 19.3371 10.8029 19.2947C10.8875 19.2524 11.3107 19.3371 11.4376 19.3794C11.6492 19.4217 11.9877 19.3794 12.1569 19.464C12.2839 19.5486 12.3262 19.6756 12.4108 19.8025C12.5378 19.9718 12.7493 20.141 12.8763 20.3103C13.0455 20.4795 13.2994 20.6065 13.4263 20.818C13.5533 21.0719 13.511 21.3681 13.6379 21.622C13.8071 21.9605 14.1456 22.0874 14.3995 22.2567C14.6534 22.4259 14.8227 22.5952 15.0765 22.2567C15.2035 22.0451 15.2035 21.7066 15.5843 21.7489C15.5843 21.5797 15.9228 21.7489 16.0497 21.7489C16.1767 21.7489 16.3036 21.7489 16.4306 21.7912C16.4729 21.8335 16.5152 22.0028 16.5575 21.9182C16.5152 22.0028 16.896 22.299 16.9806 22.3836C17.0652 22.5529 17.1076 22.976 17.2768 23.0606C17.1499 23.1875 17.5307 23.4837 17.573 23.5684C17.6576 23.6953 17.6999 23.8222 17.8269 23.9069C17.8692 23.9492 17.9538 23.9492 17.9961 24.0338C18.0385 24.1184 17.9961 24.2454 18.0384 24.33C18.0384 24.4146 18.0808 24.5416 18.1231 24.6262C18.1654 24.7531 18.25 24.8801 18.2923 25.007C18.3346 25.0916 18.3346 25.1339 18.377 25.1763C18.5039 25.3032 18.8001 25.3455 18.9693 25.4301C19.1386 25.5148 19.2232 25.5148 19.4348 25.5571C19.5194 25.5571 19.604 25.5571 19.6887 25.5994C19.731 25.6417 19.7733 25.684 19.8156 25.7263C19.8579 25.7263 20.0695 25.684 20.1541 25.6417C20.281 25.4301 19.9425 25.0916 20.0272 24.8801C20.0272 24.8801 20.0272 24.9224 19.9848 24.9224C19.8156 24.4146 20.0695 23.9492 20.408 23.6107C20.408 23.4837 20.8734 23.3145 20.8311 23.2299C21.1273 23.0606 21.4235 22.9337 21.6774 22.7644C21.8043 22.6798 22.2274 22.4259 22.2698 22.2567H22.2274C22.3544 22.172 22.4813 22.0874 22.6083 22.0451C22.7352 22.0028 22.9044 22.0028 23.0314 21.9182C23.3276 21.7489 23.6238 21.8335 23.92 21.9605C24.1315 22.0451 24.2162 22.0028 24.4277 22.0451C24.5547 22.0451 24.7239 22.172 24.8085 22.1297C24.8085 22.1297 24.8932 21.9605 24.8085 22.0028C24.7662 21.9182 24.6393 21.9182 24.5547 22.0028C24.597 21.9605 24.4277 21.9605 24.4277 21.8758C24.4277 21.8335 24.47 21.8335 24.47 21.9182C24.5123 21.9182 24.6393 21.8758 24.6393 21.7912H24.7662C24.7239 21.9182 24.8085 21.9182 24.9355 21.8335C24.9355 21.8758 25.0201 22.0451 25.0201 22.0451C25.0624 22.0451 25.1047 22.0028 25.147 22.0028C25.1047 22.0451 25.147 22.0874 25.1894 22.0451C25.1894 22.0874 25.274 22.0028 25.274 22.0451C25.2317 22.0028 25.274 22.1297 25.3163 22.1297C25.3163 22.0874 25.2317 22.2143 25.274 22.172C25.2317 22.172 25.2317 22.172 25.1894 22.172C25.147 22.299 25.4855 22.3413 25.5279 22.299C25.4855 22.3836 25.7394 22.3836 25.6548 22.3413C25.6548 22.3836 25.7394 22.3836 25.7394 22.3413C25.824 22.3413 25.7817 22.2143 25.7394 22.172C25.7817 22.2143 25.824 22.2567 25.824 22.172C25.8664 22.172 25.9087 22.1297 25.951 22.1297C25.951 22.1297 25.951 22.172 25.9933 22.172L26.0356 22.1297C26.0356 22.0874 26.1202 22.2567 26.1202 22.2567C26.1202 22.2567 26.0779 22.2567 26.0779 22.299C26.1202 22.299 26.1202 22.299 26.1626 22.299C26.0779 22.4259 26.4164 22.1297 26.2895 22.2143C26.2895 22.172 26.2895 22.1297 26.2472 22.1297C26.3741 22.2143 26.3318 22.0028 26.2895 21.9182H26.3318C26.3741 22.0028 26.4587 21.9182 26.5011 21.9605C26.5011 21.9605 26.5011 21.9605 26.4587 22.0028C26.5011 22.0451 26.5011 22.0451 26.5434 22.1297C26.5434 22.172 26.6703 22.1297 26.6703 22.1297C26.6703 22.1297 26.6703 22.1297 26.628 22.1297C26.6703 22.172 26.7126 22.2567 26.7973 22.2143C26.8396 22.2567 26.8819 22.4259 26.9242 22.299C26.8819 22.4259 27.0511 22.3836 27.0088 22.299C27.0511 22.3413 27.0511 22.3836 27.1358 22.4259C27.1358 22.3836 27.1358 22.3413 27.0934 22.2567C27.2204 22.4259 27.2204 22.2143 27.1781 22.2143L27.2204 22.172C27.1781 22.1297 27.1781 22.1297 27.1358 22.172C27.1358 22.1297 27.1358 22.1297 27.1358 22.1297C27.1358 22.0874 27.0934 22.0451 27.0511 22.0028C27.0511 22.0451 27.0511 22.0874 27.0088 22.0874C27.0088 22.0028 26.9242 22.0451 26.8819 22.0451C27.0088 22.0028 26.8396 21.9605 26.7549 22.0028C26.7549 21.9605 26.7549 21.9605 26.7549 21.9182C26.7126 21.9605 26.6703 21.8758 26.5857 21.8758C26.5857 21.8335 26.5857 21.8335 26.5434 21.8335C26.5434 21.8335 26.5434 21.8335 26.5857 21.8758V21.8335C26.628 21.8758 26.6703 21.8335 26.5857 21.7912C26.628 21.7489 26.6703 21.8335 26.7549 21.7912C26.7549 21.7489 26.6703 21.7489 26.628 21.7066C26.6703 21.6643 26.5434 21.7066 26.5857 21.622L26.7549 21.7066V21.6643C26.7972 21.622 26.7549 21.5373 26.8396 21.5373L26.7973 21.495C26.7973 21.4527 26.8396 21.4527 26.8396 21.4527C26.8819 21.3681 26.7549 21.4527 26.7126 21.4104C26.7972 21.4104 26.7972 21.3258 26.7126 21.3681V21.3258H26.6703C26.6703 21.3258 26.6703 21.2835 26.7126 21.2835C26.7126 21.2411 26.5011 21.4527 26.5011 21.4527L26.3741 21.3258C26.3741 21.3681 26.8819 20.945 26.7549 20.9873C26.7972 20.9026 26.7973 21.0296 26.8396 21.0296C26.8819 20.9873 27.1781 20.945 27.2204 20.9026C27.2627 20.945 27.4319 21.0296 27.4319 20.9026C27.4319 20.9873 27.6435 20.9873 27.6012 20.8603L27.7281 20.9026C27.7281 20.945 27.7704 20.945 27.7704 20.945C27.5589 20.9873 27.305 20.945 27.0934 21.0296C27.2627 21.0296 27.4319 21.0719 27.6435 21.0296H27.6012C27.6012 21.0296 27.8128 20.9873 27.8551 20.945C27.8551 20.9026 27.8128 20.9026 27.7704 20.945C27.8128 20.818 27.8128 20.6911 27.8128 20.5641C27.982 20.5641 27.8128 20.8603 27.982 20.8603C27.982 20.9026 28.0243 20.945 28.0666 20.945C28.0243 20.9873 27.8128 20.945 27.8128 21.0296C27.9397 20.9873 28.109 20.945 28.2359 20.9026C28.4051 20.8603 28.5744 20.7757 28.7436 20.7334C29.0822 20.6488 29.5053 20.6065 29.8015 20.8603C29.8015 20.8603 29.8015 20.8603 29.8015 20.818C29.8861 20.8603 29.9707 20.9026 30.0554 20.9873C30.0554 20.9873 30.2669 21.2411 30.1823 21.1988C30.14 21.1988 30.14 21.0719 30.14 21.0296C30.1823 21.1142 30.14 21.1988 30.3092 21.2411C30.4362 21.2835 30.4785 21.3258 30.6054 21.1988C30.6477 21.1988 30.7747 21.0296 30.7324 21.0296C30.6054 21.0296 30.5208 21.2411 30.3939 21.2411C30.4785 21.1565 30.3515 21.1565 30.3092 21.1565C30.2669 21.1565 30.6054 21.0296 30.5631 21.0296C30.5208 21.0719 30.5208 21.0719 30.5208 21.1142C30.5631 21.1142 30.7747 20.9026 30.817 20.9026L30.9862 20.8603C30.9862 20.818 30.9439 20.7757 30.9862 20.7334C30.9862 20.7334 31.0709 20.6911 31.0709 20.6488C31.2824 20.6488 31.4094 20.6488 31.5786 20.7757C31.7056 20.8603 31.7902 21.0296 31.8748 21.1565C31.9594 21.2411 32.0864 21.4104 32.171 21.4104C32.2133 21.4104 32.2556 21.4104 32.2979 21.4104C32.2556 21.4104 32.5518 21.5797 32.4672 21.5797L32.5941 21.6643C32.6364 21.7489 32.4672 22.8914 32.6788 22.849C32.6788 22.8067 32.6788 22.8067 32.6364 22.7644C32.6788 22.7644 32.7211 22.8067 32.7211 22.8067C32.7211 22.8067 32.7634 22.6798 32.7211 22.6375C32.7211 22.5952 32.7211 22.5952 32.7634 22.5952C32.5941 22.6375 32.6788 22.5529 32.6364 22.4682C32.7211 22.4682 32.8057 22.6798 32.848 22.6798C32.9326 22.6798 32.7634 22.5529 32.8903 22.5529V22.8067C32.848 22.849 32.8057 22.9337 32.7634 22.976C32.7634 22.976 32.8057 22.976 32.8057 22.9337C32.8057 22.9337 32.8057 22.9337 32.7634 22.976C32.7634 22.976 32.7634 22.976 32.7634 23.0183C32.7211 22.976 32.6364 22.976 32.7211 23.0606C32.6364 23.1029 32.8057 23.2299 32.848 23.2299C32.8057 23.2722 33.1019 23.6107 33.1442 23.6953V23.653C33.1865 23.653 33.2288 23.6953 33.2711 23.6953C33.3135 23.6953 33.2288 23.5261 33.1865 23.5261C33.2288 23.6107 33.2711 23.5261 33.3135 23.5261C33.1865 23.6107 33.3135 23.7799 33.3558 23.9069C33.3558 23.9069 33.2711 23.6953 33.2288 23.7376C33.1865 23.7799 33.3558 23.9915 33.3981 23.9915C33.3558 24.0338 33.2288 23.9069 33.2288 23.9069C33.1019 24.0761 33.5673 24.0761 33.4404 23.9915C33.4404 23.9915 33.6096 24.0338 33.6096 23.9915C33.652 24.0338 33.6096 24.0761 33.6096 24.0761C33.652 24.2031 33.7366 24.4146 33.7789 24.4993C33.8212 24.4993 33.8635 24.4993 33.9058 24.4569C33.9058 24.4993 33.9482 24.4993 33.9482 24.4569C33.9905 24.4993 34.0751 24.4569 34.1597 24.4993C34.1174 24.4993 34.0751 24.5416 34.0328 24.5416H34.1174C34.0751 24.5839 34.1597 24.5416 34.1174 24.5839C34.1597 24.5839 34.202 24.6262 34.2443 24.5839C34.2867 24.6262 34.329 24.6685 34.2867 24.7108C34.329 24.7108 34.329 24.7108 34.329 24.7108C34.2867 24.7531 34.4136 24.7954 34.3713 24.8801C34.4136 24.8801 34.7098 24.9647 34.5828 25.007C34.5828 25.007 34.1597 24.8378 34.4136 25.0493C34.4982 25.1339 34.6675 25.007 34.7944 25.0493C34.8367 25.0493 34.7944 25.0493 34.8367 25.0493C34.8367 25.0493 34.8367 25.0493 34.8367 25.0916C34.879 25.0916 34.9214 25.007 35.006 25.007C34.9637 25.007 34.9637 24.9647 34.9637 24.9647C35.006 24.9647 35.0483 24.9647 35.0906 25.007C35.0483 25.0493 35.006 25.1763 34.9637 25.2186L34.8367 25.3878V25.3455C34.8367 25.3455 34.8367 25.3455 34.7944 25.3878C34.7521 25.3032 34.7098 25.4301 34.7098 25.4725C34.5405 25.5148 34.4982 25.5571 34.3713 25.6417C34.4559 25.5994 34.5405 25.5571 34.4982 25.684C34.5828 25.5148 34.6675 25.5148 34.7944 25.4725C34.7521 25.4725 34.7521 25.4725 34.7098 25.4725C34.7944 25.4301 35.2599 24.7954 35.1752 24.7954L35.1329 24.8378C35.1329 24.6685 35.1329 24.4569 35.1752 24.2877L35.2175 24.4146C35.2599 24.2877 35.1752 23.9915 35.1752 23.8646C35.1752 23.6953 35.1752 23.5684 35.0906 23.3991C34.9637 23.1029 34.7944 22.7221 34.5828 22.4682H34.6252C34.4559 22.299 34.4136 22.1297 34.3713 21.8758C34.329 21.7066 34.2443 21.5797 34.0751 21.4104C33.7366 20.9873 33.4404 20.5218 33.3135 19.9718H33.2711C33.2711 19.8871 33.1442 19.3794 33.2288 19.3371C33.1865 19.2101 33.3981 19.2101 33.1865 19.1255C33.2288 19.1255 33.2711 19.1255 33.2711 19.1255C33.2711 19.0832 33.2711 19.0832 33.2711 19.0832C33.3558 19.0409 33.3558 18.7024 33.3135 18.7447C33.3135 18.7447 33.3135 18.7447 33.3135 18.7024C33.3558 18.7447 33.4404 18.6601 33.3981 18.5754C33.3558 18.5754 33.3558 18.5754 33.3558 18.5331C33.3981 18.5331 33.4404 18.5331 33.4827 18.4485H33.4404C33.4404 18.4062 33.4827 18.4062 33.4827 18.4485C33.5673 18.4485 33.6096 18.3215 33.525 18.3215C33.5673 18.2369 33.6943 18.2369 33.652 18.1523C33.652 18.0677 33.4827 18.1523 33.525 18.0254C33.5673 18.0677 33.6096 18.0677 33.652 18.11C33.652 18.0677 33.652 18.0677 33.652 18.0677C33.652 18.11 33.652 18.2369 33.6943 18.1523C33.7366 18.2369 33.8212 17.983 33.8212 17.983C33.8212 17.983 33.8212 17.983 33.7789 17.983V17.9407C33.7789 17.9407 33.7789 17.9407 33.8212 17.9407L33.7789 17.8984C33.8212 17.8984 33.8635 17.9407 33.8635 17.8561C33.9058 17.9407 34.1597 17.6869 34.1597 17.6869C34.2443 17.6869 34.2867 17.5176 34.202 17.5599C34.2867 17.6022 34.4982 17.433 34.4559 17.3483C34.4559 17.3483 34.4559 17.3483 34.4136 17.3907C34.4136 17.3483 34.4982 17.2637 34.4982 17.3483C34.5405 17.3483 34.5828 17.306 34.6675 17.306L34.6252 17.2637C34.6252 17.2637 34.6675 17.2214 34.7098 17.2214C34.7098 17.2214 34.7098 17.1791 34.6675 17.1791C34.7098 17.1791 34.879 16.2482 35.1329 16.4175C35.1752 16.2905 35.5137 16.2905 35.6407 16.2905C35.6407 15.7405 36.0215 15.3173 36.5716 15.2327C36.5292 15.1904 36.5293 15.1904 36.5293 15.1481C36.5716 15.1904 36.5716 15.2327 36.6139 15.2327C36.5716 15.275 36.5716 15.3173 36.5716 15.3596L36.6139 15.4019C36.6562 15.275 36.7408 15.1481 36.7831 15.0211H36.7408C36.7831 15.0211 36.7831 14.9365 36.7408 14.9365H36.7831C36.7408 14.8942 36.6985 14.8942 36.6985 14.9365C36.6985 14.9365 36.6985 14.9788 36.7408 14.9788C36.6985 14.9788 36.6562 15.0211 36.6562 15.0211C36.6985 14.9788 36.6985 14.8942 36.6139 14.8942C36.6139 14.9365 36.6139 14.9365 36.6139 14.9788C36.5292 15.0211 36.4869 15.1058 36.4446 15.1058C36.4023 15.1481 36.2331 15.0634 36.2331 15.0211C36.36 15.0211 36.4023 15.1058 36.4869 14.9788C36.4446 14.8942 36.6139 14.8519 36.4869 14.7673C36.6139 14.8096 36.6139 14.6826 36.5293 14.6403L36.2754 14.598C36.2754 14.598 36.2754 14.598 36.2754 14.6403C36.2754 14.5557 36.1907 14.598 36.1484 14.598V14.5557C36.2331 14.598 36.4023 14.598 36.4869 14.598C36.4869 14.5557 36.4869 14.5557 36.4869 14.5557H36.4446C36.4446 14.5557 36.4446 14.5134 36.4023 14.4711C36.4023 14.4711 36.4023 14.5134 36.4446 14.5134C36.4869 14.5134 36.4446 14.5134 36.4869 14.5134L36.5293 14.5557C36.4869 14.5557 36.5716 14.4711 36.5716 14.5134C36.5716 14.5134 36.5716 14.5134 36.6139 14.5557H36.5716C36.6139 14.598 36.6562 14.598 36.6985 14.5557H36.7408V14.5134C36.8254 14.6403 36.8678 14.4287 36.8678 14.4287C37.2486 14.5557 37.2486 14.3864 37.2486 14.3864C37.2909 14.3441 37.3332 14.3018 37.2909 14.2172C37.3332 14.3441 37.3755 14.2595 37.4178 14.2172L37.3755 14.1749C37.4601 14.1749 37.3755 13.9633 37.3332 13.921C37.5024 14.0056 37.6717 14.2172 37.6294 14.4287C37.5871 14.6403 37.2909 14.598 37.2486 14.8519C37.3332 14.8096 37.5871 14.6403 37.6294 14.598C37.7563 14.4287 37.5871 14.1326 37.5024 14.0056H37.5448C37.3332 13.8787 37.1216 13.5825 37.0793 13.3286H37.1216C36.9947 13.1594 36.9947 12.9478 36.7408 12.9901C36.6562 12.9901 36.5716 13.0747 36.4869 13.1594C36.5292 13.0747 36.5293 13.0747 36.5293 12.9901C36.36 13.0324 36.4023 12.8209 36.3177 12.7785C36.3177 12.7362 36.4869 12.9478 36.4446 12.8632C36.4446 12.9478 36.5716 12.9901 36.6562 12.9478C36.7408 12.8632 36.6139 12.7362 36.5716 12.7785C36.5716 12.7362 36.5292 12.6939 36.4446 12.7362C36.5716 12.6939 36.5292 12.6516 36.4869 12.6093C36.5292 12.567 36.5292 12.6093 36.6139 12.6516C36.6139 12.6516 36.6139 12.4823 36.5293 12.44C36.6562 12.3977 36.3177 12.3554 36.3177 12.3554C36.36 12.2708 36.1484 12.2708 36.1484 12.1438C36.1907 12.1862 36.2754 12.2285 36.3177 12.2285C36.3177 12.2708 36.36 12.3554 36.4023 12.3554V12.3131C36.4023 12.3131 36.5292 12.3977 36.5716 12.3131C36.5716 12.2708 36.5293 12.2708 36.5293 12.2708C36.5716 12.2285 36.5292 12.1862 36.4869 12.1862C36.5292 12.1862 36.5293 12.1862 36.5293 12.1438C36.6139 12.0592 36.1484 11.7207 36.1061 11.9323C36.0638 11.8053 35.9792 11.89 35.8946 11.8477C35.8946 11.8053 35.8946 11.8477 35.8946 11.8053C36.0215 11.8477 35.9369 11.7207 35.8946 11.6784C35.9369 11.6784 35.9792 11.8053 36.0215 11.8053C36.0638 11.8053 36.0638 11.763 36.0638 11.7207C36.1061 11.763 36.0638 11.7207 36.1061 11.763C36.0638 11.8053 36.2331 11.8477 36.2754 11.89C36.3177 11.8477 36.3177 11.8477 36.2754 11.8053C36.3177 11.8477 36.3177 11.9323 36.4446 11.9746C36.4446 11.9323 36.4446 11.89 36.4023 11.89V11.8477C36.4023 11.8477 36.4023 11.8477 36.4446 11.8477C36.4446 11.8053 36.36 11.6361 36.3177 11.6361L36.1061 11.2553C36.1061 11.1706 36.1484 11.086 36.1484 11.0014C36.1061 11.0014 36.1061 11.0014 36.1061 11.0014H36.1484C36.1484 11.0014 36.1484 11.0014 36.1484 10.9591L36.1907 11.0014C36.2331 10.9168 36.1484 10.9168 36.1061 10.8745C36.1484 10.8321 36.1484 10.8321 36.1907 10.8745C36.2331 10.8321 36.1484 10.7052 36.1061 10.7898V10.7475C36.1484 10.7475 36.2754 10.6206 36.2754 10.5783C36.4023 10.5783 36.3177 10.3667 36.4446 10.3244C36.4446 10.3667 36.4446 10.3667 36.4446 10.409H36.4869C36.4446 10.4513 36.4446 10.4936 36.4869 10.4936C36.4446 10.4936 36.4023 10.4936 36.4023 10.5359C36.36 10.5359 36.36 10.5359 36.4023 10.5783C36.2331 10.6206 36.4446 10.8745 36.4446 10.8321C36.4869 10.9168 36.2754 10.8321 36.3177 10.8321C36.3177 10.8321 36.2754 11.0437 36.3177 11.0437C36.36 11.0437 36.36 11.0014 36.36 10.9591C36.4023 10.9591 36.36 10.9591 36.4023 10.9591C36.4023 10.9168 36.4023 10.9168 36.4446 10.9168C36.4446 10.9168 36.4446 10.9591 36.4446 11.0014C36.4446 11.0014 36.4869 11.0014 36.4869 10.9591C36.4446 11.0014 36.4446 11.0014 36.4446 11.0437V11.086C36.4446 11.086 36.4023 11.086 36.4023 11.0437C36.4023 11.0437 36.4023 11.0437 36.4023 11.0014C36.3177 11.0014 36.3177 11.213 36.36 11.213C36.4023 11.213 36.4023 11.1706 36.4023 11.1706C36.4023 11.213 36.4446 11.1706 36.4446 11.213C36.4446 11.213 36.4446 11.213 36.4446 11.1706C36.4446 11.213 36.4869 11.213 36.5293 11.2553C36.4869 11.2553 36.4023 11.213 36.4023 11.2976C36.36 11.2976 36.4023 11.2976 36.36 11.3399C36.4023 11.3399 36.4023 11.5091 36.4869 11.5515V11.5091C36.4869 11.5091 36.6139 11.6361 36.6562 11.6361C36.6139 11.6361 36.5716 11.6784 36.6139 11.7207C36.6562 11.6784 36.6562 11.7207 36.7408 11.7207C36.7408 11.6784 36.6985 11.6361 36.6985 11.5515C36.7831 11.7207 36.7831 11.5091 36.7831 11.4668C36.7831 11.5091 36.7831 11.5515 36.7831 11.5938C36.8254 11.5938 36.8254 11.5938 36.8254 11.5515H36.8678C36.8678 11.6361 36.7831 11.5938 36.7831 11.6361C36.7831 11.6784 36.8254 11.7207 36.8254 11.6784H36.8678C36.8678 11.7207 36.8254 11.7207 36.8678 11.763C36.9101 11.763 36.9524 11.7207 36.9524 11.7207C36.9524 11.8053 36.8678 11.763 36.8678 11.8477C36.8678 11.89 36.9524 11.9746 36.9524 11.89C36.9524 11.9323 36.9947 11.9323 37.037 11.9323V11.9746H37.0793C37.037 11.9746 36.9947 12.0169 37.037 12.0592C36.9947 12.0169 36.9101 12.1015 36.9524 12.1015C36.9101 12.1438 36.8254 12.3977 36.8678 12.44C36.7408 12.567 36.9947 12.7785 36.9947 12.7785C36.9947 12.7362 36.9947 12.6939 36.9947 12.6939C36.9947 12.6939 36.9947 12.6939 37.037 12.6939C37.1216 12.8209 37.1216 12.6093 37.0793 12.6516C37.0793 12.6093 37.0793 12.6093 37.1216 12.6093C37.0793 12.567 37.0793 12.5247 37.0793 12.4823C37.0793 12.4823 37.1216 12.4823 37.1216 12.5247V12.4823C36.9947 12.44 37.1639 12.3977 37.1639 12.3554C37.1639 12.3977 37.1639 12.3977 37.1639 12.3977C37.2486 12.3131 37.1639 12.0169 37.2909 11.9746C37.2909 12.0169 37.2909 12.0169 37.2909 12.0592C37.3332 11.9323 37.3755 11.8477 37.4178 11.7207H37.3755C37.5024 11.5515 37.5024 11.086 37.3332 10.9168C37.3332 11.0437 37.1216 10.7898 37.0793 10.7475C37.037 10.6629 36.9947 10.409 36.8678 10.4513C36.8678 10.409 36.8254 10.409 36.8254 10.3667C36.9524 10.3667 37.0793 10.4936 37.2063 10.5783C37.2486 10.5783 37.3332 10.4936 37.3755 10.5783C37.4178 10.6206 37.4178 10.7898 37.3332 10.7898C37.4178 10.7898 37.4178 10.8745 37.5024 10.7475C37.5024 10.7475 37.5024 10.7898 37.5024 10.8321C37.5448 10.7052 37.5448 10.5783 37.5871 10.4936C37.6294 10.4513 37.8833 10.1974 37.7986 10.1128C37.8833 10.1128 37.9679 9.0973 37.7986 9.0973C37.7986 9.0973 37.7986 9.13962 37.841 9.13962C37.841 9.13962 37.6717 9.13962 37.6294 9.13962C37.6717 9.13962 37.6717 9.0973 37.714 9.05499C37.714 9.05499 37.714 9.05499 37.7563 9.0973C37.7563 9.05499 37.9256 8.88574 37.9679 8.92805C37.9256 8.92805 37.9256 8.97036 37.9256 9.01268C38.2641 8.88574 38.5603 8.7588 38.8142 8.54723C38.9411 8.46261 39.2796 8.25104 39.2796 8.1241C39.2373 8.1241 39.195 8.1241 39.2373 8.16642C39.1527 8.16642 39.1103 8.25104 38.9834 8.25104C38.9834 8.25104 38.9834 8.25104 39.0257 8.20873C38.9834 8.20873 38.9834 8.16642 38.9411 8.16642C38.9834 8.16642 38.9834 8.1241 39.0257 8.1241C38.9834 8.03948 38.8142 8.29336 38.8142 8.29336C38.7295 8.37798 38.6449 8.37798 38.518 8.4203C38.4756 8.46261 38.1795 8.54723 38.1795 8.54723C38.1795 8.54723 38.1371 8.50492 38.0948 8.50492C38.0525 8.50492 37.9256 8.58955 37.9679 8.46261C38.0102 8.37798 38.2641 8.33567 38.2641 8.20873C38.3064 8.29336 38.4333 8.03948 38.4333 8.03948C38.4333 8.03948 38.4333 8.08179 38.4333 8.1241C38.4757 8.08179 38.8565 7.99716 38.8142 7.95485C38.8988 8.08179 38.9834 7.82791 38.9834 7.82791C38.9834 7.91254 39.068 7.87023 39.1103 7.87023C39.1103 7.95485 39.3642 7.74329 39.4065 7.7856C39.4065 7.74329 39.4065 7.70097 39.4488 7.65866C39.4912 7.70097 39.5335 7.61635 39.5335 7.57404C39.5758 7.65866 39.6604 7.57403 39.6604 7.53172C39.7027 7.53172 39.745 7.53172 39.745 7.48941C39.7874 7.48941 39.7874 7.40478 39.7874 7.36247C39.8297 7.36247 39.872 7.36247 39.872 7.32016C39.9143 7.36247 39.9143 7.27784 39.9143 7.23553C39.9143 7.27784 39.9566 7.23553 39.9566 7.23553C39.9989 7.32016 39.9143 7.36247 39.9989 7.40478C40.0835 7.4471 40.1682 7.27784 40.2528 7.23553C40.2528 7.27784 40.422 7.19322 40.4644 7.1509C40.4644 7.19322 40.4644 7.19322 40.4644 7.23553C40.4644 7.1509 40.4644 7.06628 40.4221 6.98165C40.4644 6.85471 40.1259 6.68546 40.1259 6.8124C40.1259 6.85471 40.2105 6.8124 40.2105 6.8124C40.2951 6.85471 40.2951 6.89703 40.3374 6.98165C40.3374 6.93934 40.3374 6.93934 40.3374 6.89703C40.4644 7.06628 40.2105 7.1509 40.0835 7.1509L39.872 6.98165H39.9143C39.9989 6.89703 39.6604 6.68546 39.5758 6.72777C39.6181 6.72777 39.6181 6.77009 39.6181 6.8124C39.6181 6.77009 39.5758 6.77009 39.5335 6.8124C39.5335 6.77009 39.5335 6.77009 39.5335 6.72777C39.6181 6.72777 39.5335 6.68546 39.5335 6.64315C39.5758 6.68546 39.5758 6.64315 39.5758 6.60083C39.6181 6.60083 39.6604 6.51621 39.5758 6.51621C39.8297 6.34696 39.6181 6.43158 39.5335 6.22002C39.4912 6.05077 39.5758 5.58532 39.6604 5.45838C39.6604 5.45838 39.7027 5.45838 39.745 5.41607C39.7874 5.37376 39.7027 5.33144 39.7027 5.28913C39.7027 5.24682 39.745 5.07757 39.8297 5.07757C39.872 5.07757 39.7874 5.2045 39.8297 5.2045C39.872 5.16219 39.872 5.11988 39.872 5.07757C39.872 5.07757 39.9989 5.16219 39.9566 5.2045L39.9989 5.16219C40.0412 5.11988 40.0412 5.11988 40.0412 5.03525C40.1259 5.11988 40.1259 5.03525 40.1259 4.99294C40.1682 5.07756 40.1682 4.78137 40.1682 4.78137C40.2105 4.82369 40.1682 4.95063 40.2528 4.866C40.2528 5.03525 40.4644 4.65443 40.3374 4.69675C40.3374 4.65443 40.3374 4.5275 40.3797 4.48518C40.4644 4.61212 40.422 4.40056 40.4644 4.40056C40.4644 4.48518 40.5067 4.48518 40.5067 4.40056C40.549 4.40056 40.549 4.44287 40.549 4.48518H40.5067C40.5067 4.56981 40.5913 4.61212 40.6336 4.5275C40.6336 4.5275 40.5913 4.5275 40.5913 4.48518C40.6336 4.44287 40.6759 4.40056 40.6336 4.35824C40.6759 4.35824 40.7606 4.40056 40.7182 4.44287C40.7182 4.40056 40.6759 4.40056 40.6759 4.35824C40.6759 4.40056 40.6336 4.61212 40.6759 4.48518C40.7182 4.56981 40.7182 4.44287 40.7182 4.40056C40.7606 4.40056 40.7606 4.35824 40.7606 4.31593C40.9298 4.31593 40.7606 4.10437 40.7606 4.06205C40.7606 4.10437 40.9298 4.18899 40.9298 4.14668C41.0144 4.10436 40.9721 3.93511 41.0144 3.8928C41.0144 3.93511 41.0144 3.93511 41.0144 3.97743C41.0567 3.97743 41.0567 3.97743 41.0567 3.93511C41.0567 3.93511 41.0567 3.97743 41.0991 3.97743C41.1414 3.97743 41.0991 3.93511 41.1837 3.93511C41.2683 3.93511 41.1837 3.80817 41.1837 3.80817C41.226 3.80817 41.2683 3.85049 41.2683 3.80817C41.2683 3.80817 41.2683 3.80817 41.3106 3.85049C41.3106 3.80817 41.3106 3.72355 41.3529 3.72355C41.3529 3.76586 41.3952 3.85049 41.3952 3.76586C41.4799 3.76586 41.4799 3.63892 41.4799 3.59661C41.4799 3.5543 41.5645 3.59661 41.5222 3.51198C41.4799 3.5543 41.3952 3.51198 41.3952 3.46967ZM34.2867 25.8956C34.2443 25.9379 34.202 25.9802 34.1597 25.9802C34.202 26.0648 34.5828 25.8533 34.5828 25.811C34.6252 25.8533 34.6252 25.811 34.6252 25.8533C34.7521 25.8533 34.5828 25.684 34.5405 25.684C34.5405 25.684 34.5828 25.7263 34.5828 25.7686H34.5405C34.5405 25.7686 34.5405 25.7686 34.5405 25.7263C34.4136 25.7263 34.4559 25.7686 34.4982 25.811H34.4559C34.4559 25.8533 34.4559 25.8533 34.4559 25.7686C34.3713 25.8533 34.3713 25.8956 34.2867 25.8956C34.329 25.9379 34.329 25.8956 34.2867 25.8956ZM39.195 7.99717C39.195 8.03948 39.195 8.03948 39.195 8.08179C39.2796 8.1241 39.2796 7.95485 39.195 7.95485C39.2373 7.95485 39.2373 7.99717 39.195 7.99717C39.2373 7.99717 39.2373 7.99717 39.195 7.99717ZM39.7874 7.48941L39.6604 7.61635C39.7027 7.65866 39.7874 7.57403 39.8297 7.53172C39.8297 7.48941 39.7874 7.48941 39.7874 7.48941ZM39.7027 7.70097C39.7027 7.74329 39.7874 7.74329 39.7874 7.74329C39.7874 7.70097 39.9566 7.61635 39.9989 7.61635C39.9989 7.61635 39.9989 7.44709 39.9143 7.53172C39.9143 7.48941 39.9143 7.4471 39.872 7.48941C39.872 7.53172 39.7027 7.70097 39.7027 7.70097ZM40.2105 7.65866C40.3374 7.87023 40.5913 7.44709 40.2951 7.44709C40.3797 7.65866 40.1259 7.61635 40.2105 7.65866Z" fill="url(#paint0_linear_1055_867)"/>
</g>
<defs>
<linearGradient id="paint0_linear_1055_867" x1="7.68793" y1="1.93681" x2="14.193" y2="27.2416" gradientUnits="userSpaceOnUse">
<stop stop-color="#833AB4"/>
<stop offset="1" stop-color="#FFD700"/>
</linearGradient>
</defs>
</svg>
