<svg width="40" height="40" viewBox="0 0 40 40" fill="none" xmlns="http://www.w3.org/2000/svg">
<g id="Group 1171275872">
<circle id="Ellipse 31" cx="20" cy="20" r="20" fill="#393939"/>
<path id="Subtract" fill-rule="evenodd" clip-rule="evenodd" d="M27.8153 13.4182C28.6763 13.6487 29.353 14.3253 29.5835 15.1864H29.5818C30 16.7455 30 20.0003 30 20.0003C30 20.0003 30 23.2552 29.5818 24.8143C29.3513 25.6753 28.6747 26.352 27.8136 26.5825C26.2545 27.0007 20 27.0007 20 27.0007C20 27.0007 13.7455 27.0007 12.1864 26.5825C11.3253 26.352 10.6487 25.6753 10.4182 24.8143C10 23.2552 10 20.0003 10 20.0003C10 20.0003 10 16.7455 10.4182 15.1864C10.6487 14.3253 11.3253 13.6487 12.1864 13.4182C13.7455 13 20 13 20 13C20 13 26.2545 13 27.8153 13.4182ZM23.1974 20.0003L17.9998 22.9999V17.0006L23.1974 20.0003Z" fill="white"/>
</g>
</svg>
